<svg width="1488" height="478" viewBox="0 0 1488 478" fill="none" xmlns="http://www.w3.org/2000/svg">
<g id="1755005194033 2">
<path id="Vector" d="M0 1.15999C0 0.852344 0.122191 0.557295 0.339692 0.339754C0.557193 0.122213 0.852188 0 1.15978 0L3.47935 0C14.5527 0 25.1725 4.39968 33.0026 12.2311C40.8326 20.0626 45.2315 30.6844 45.2315 41.7598V44.0797C45.2315 44.3874 45.1093 44.6824 44.8918 44.9C44.6743 45.1175 44.3793 45.2397 44.0717 45.2397H1.15978C0.852188 45.2397 0.557193 45.1175 0.339692 44.9C0.122191 44.6824 0 44.3874 0 44.0797V1.15999Z" fill="#4591C0" fill-opacity="0.1"/>
<path id="Vector_2" d="M0 54.5199C0 54.2122 0.122191 53.9172 0.339692 53.6996C0.557194 53.4821 0.852189 53.3599 1.15978 53.3599H56.8293C62.3123 53.3599 67.7416 54.44 72.8072 56.5386C77.8728 58.6373 82.4755 61.7133 86.3525 65.591C90.2296 69.4688 93.305 74.0723 95.4033 79.1388C97.5015 84.2054 98.5815 89.6356 98.5815 95.1196V97.4396C98.5815 97.7472 98.4593 98.0423 98.2418 98.2598C98.0243 98.4774 97.7293 98.5996 97.4217 98.5996H41.7521C30.6788 98.5996 20.059 94.1999 12.2289 86.3684C4.39887 78.537 0 67.9152 0 56.8398L0 54.5199Z" fill="#8CDAFF" fill-opacity="0.1"/>
<path id="Vector_3" d="M0 107.879C0 107.572 0.122191 107.277 0.339692 107.059C0.557194 106.841 0.852189 106.719 1.15978 106.719H97.4217C97.7293 106.719 98.0243 106.841 98.2418 107.059C98.4593 107.277 98.5815 107.572 98.5815 107.879V110.199C98.5815 115.683 97.5015 121.113 95.4033 126.18C93.305 131.247 90.2296 135.85 86.3525 139.728C82.4755 143.606 77.8728 146.682 72.8072 148.78C67.7416 150.879 62.3123 151.959 56.8293 151.959H41.7521C30.6788 151.959 20.059 147.559 12.2289 139.728C4.39887 131.896 0 121.275 0 110.199L0 107.879Z" fill="#26A0DA" fill-opacity="0.1"/>
<path id="Vector_4" d="M0 200.679C0 189.603 4.39887 178.982 12.2289 171.15C20.059 163.319 30.6788 158.919 41.7521 158.919H56.8293C62.3123 158.919 67.7416 159.999 72.8072 162.098C77.8728 164.196 82.4755 167.272 86.3525 171.15C90.2296 175.028 93.305 179.631 95.4033 184.698C97.5015 189.764 98.5815 195.195 98.5815 200.679V202.999C98.5815 203.306 98.4593 203.601 98.2418 203.819C98.0243 204.036 97.7293 204.159 97.4217 204.159H1.15978C0.852189 204.159 0.557194 204.036 0.339692 203.819C0.122191 203.601 0 203.306 0 202.999V200.679Z" fill="#4591C0" fill-opacity="0.1"/>
<path id="Vector_5" d="M0 213.438C0 213.131 0.122191 212.836 0.339692 212.618C0.557193 212.401 0.852188 212.278 1.15978 212.278H3.47935C14.5527 212.278 25.1725 216.678 33.0026 224.509C40.8326 232.341 45.2315 242.963 45.2315 254.038V309.718C45.2315 310.025 45.1093 310.32 44.8918 310.538C44.6743 310.756 44.3793 310.878 44.0717 310.878H41.7521C30.6788 310.878 20.059 306.478 12.2289 298.647C4.39887 290.815 0 280.193 0 269.118L0 213.438Z" fill="#4591C0" fill-opacity="0.1"/>
<path id="Vector_6" d="M0 320.158C0 319.85 0.122191 319.555 0.339692 319.338C0.557193 319.12 0.852188 318.998 1.15978 318.998H3.47935C14.5527 318.998 25.1725 323.398 33.0026 331.229C40.8326 339.061 45.2315 349.682 45.2315 360.758V416.437C45.2315 416.745 45.1093 417.04 44.8918 417.258C44.6743 417.475 44.3793 417.597 44.0717 417.597H1.15978C0.852188 417.597 0.557193 417.475 0.339692 417.258C0.122191 417.04 0 416.745 0 416.437V320.158Z" fill="#4591C0" fill-opacity="0.1"/>
<path id="Vector_7" d="M0 425.718C0 425.41 0.122191 425.115 0.339692 424.897C0.557193 424.68 0.852188 424.558 1.15978 424.558H44.0717C44.3793 424.558 44.6743 424.68 44.8918 424.897C45.1093 425.115 45.2315 425.41 45.2315 425.718V468.637C45.2315 468.945 45.1093 469.24 44.8918 469.458C44.6743 469.675 44.3793 469.797 44.0717 469.797H41.7521C30.6788 469.797 20.059 465.398 12.2289 457.566C4.39887 449.735 0 439.113 0 428.038L0 425.718Z" fill="#8CDAFF" fill-opacity="0.1"/>
<path id="Vector_8" d="M53.3496 1.15999C53.3496 0.852344 53.4718 0.557295 53.6893 0.339754C53.9068 0.122213 54.2018 0 54.5094 0L150.771 0C151.079 0 151.374 0.122213 151.591 0.339754C151.809 0.557295 151.931 0.852344 151.931 1.15999V3.47998C151.931 14.5554 147.532 25.1771 139.702 33.0086C131.872 40.8401 121.252 45.2397 110.179 45.2397H95.1018C84.0284 45.2397 73.4086 40.8401 65.5785 33.0086C57.7485 25.1771 53.3496 14.5554 53.3496 3.47998V1.15999Z" fill="#8CDAFF" fill-opacity="0.1"/>
<path id="Vector_9" d="M53.3496 213.438C53.3496 213.131 53.4718 212.836 53.6893 212.618C53.9068 212.401 54.2018 212.278 54.5094 212.278H97.4213C97.7289 212.278 98.0239 212.401 98.2414 212.618C98.4589 212.836 98.5811 213.131 98.5811 213.438V309.718C98.5811 310.025 98.4589 310.32 98.2414 310.538C98.0239 310.756 97.7289 310.878 97.4213 310.878H54.5094C54.2018 310.878 53.9068 310.756 53.6893 310.538C53.4718 310.32 53.3496 310.025 53.3496 309.718V213.438Z" fill="#4591C0" fill-opacity="0.1"/>
<path id="Vector_10" d="M53.3496 320.158C53.3496 319.85 53.4718 319.555 53.6893 319.338C53.9068 319.12 54.2018 318.998 54.5094 318.998H110.179C121.252 318.998 131.872 323.398 139.702 331.229C147.532 339.061 151.931 349.682 151.931 360.758V363.078C151.931 363.385 151.809 363.68 151.591 363.898C151.374 364.116 151.079 364.238 150.771 364.238H54.5094C54.2018 364.238 53.9068 364.116 53.6893 363.898C53.4718 363.68 53.3496 363.385 53.3496 363.078V320.158Z" fill="#8CDAFF" fill-opacity="0.1"/>
<path id="Vector_11" d="M53.3496 373.517C53.3496 373.21 53.4718 372.915 53.6893 372.697C53.9068 372.48 54.2018 372.357 54.5094 372.357H97.4213C97.7289 372.357 98.0239 372.48 98.2414 372.697C98.4589 372.915 98.5811 373.21 98.5811 373.517V416.437C98.5811 416.745 98.4589 417.04 98.2414 417.257C98.0239 417.475 97.7289 417.597 97.4213 417.597H54.5094C54.2018 417.597 53.9068 417.475 53.6893 417.257C53.4718 417.04 53.3496 416.745 53.3496 416.437V373.517Z" fill="#4591C0" fill-opacity="0.1"/>
<path id="Vector_12" d="M53.3496 425.718C53.3496 425.41 53.4718 425.115 53.6893 424.897C53.9068 424.68 54.2018 424.558 54.5094 424.558H97.4213C97.7289 424.558 98.0239 424.68 98.2414 424.897C98.4589 425.115 98.5811 425.41 98.5811 425.718V428.038C98.5811 433.522 97.5011 438.952 95.4029 444.018C93.3047 449.085 90.2292 453.688 86.3522 457.566C82.4751 461.444 77.8724 464.52 72.8068 466.619C67.7412 468.717 62.3119 469.797 56.829 469.797H54.5094C54.2018 469.797 53.9068 469.675 53.6893 469.458C53.4718 469.24 53.3496 468.945 53.3496 468.637V425.718Z" fill="#8CDAFF" fill-opacity="0.1"/>
<path id="Vector_13" d="M106.7 54.5199C106.7 54.2122 106.822 53.9172 107.04 53.6996C107.257 53.4821 107.552 53.3599 107.86 53.3599H150.772C151.079 53.3599 151.374 53.4821 151.592 53.6996C151.809 53.9172 151.932 54.2122 151.932 54.5199V150.799C151.932 151.107 151.809 151.402 151.592 151.62C151.374 151.837 151.079 151.959 150.772 151.959H148.452C137.379 151.959 126.759 147.56 118.929 139.728C111.099 131.897 106.7 121.275 106.7 110.2V54.5199Z" fill="#8CDAFF" fill-opacity="0.1"/>
<path id="Vector_14" d="M106.7 160.079C106.7 159.771 106.822 159.476 107.04 159.259C107.257 159.041 107.552 158.919 107.86 158.919H204.122C204.429 158.919 204.724 159.041 204.942 159.259C205.159 159.476 205.282 159.771 205.282 160.079V162.399C205.282 173.474 200.883 184.096 193.053 191.928C185.223 199.759 174.603 204.159 163.53 204.159H148.452C137.379 204.159 126.759 199.759 118.929 191.928C111.099 184.096 106.7 173.474 106.7 162.399V160.079Z" fill="#8CDAFF" fill-opacity="0.1"/>
<path id="Vector_15" d="M106.7 213.438C106.7 213.131 106.822 212.836 107.04 212.618C107.257 212.401 107.552 212.278 107.86 212.278H163.53C174.603 212.278 185.223 216.678 193.053 224.509C200.883 232.341 205.282 242.963 205.282 254.038V256.358C205.282 256.666 205.159 256.961 204.942 257.178C204.724 257.396 204.429 257.518 204.122 257.518H148.452C137.379 257.518 126.759 253.118 118.929 245.287C111.099 237.455 106.7 226.834 106.7 215.758V213.438Z" fill="#4591C0" fill-opacity="0.1"/>
<path id="Vector_16" d="M106.7 266.799C106.7 266.491 106.822 266.196 107.04 265.978C107.257 265.761 107.552 265.639 107.86 265.639H163.53C174.603 265.639 185.223 270.038 193.053 277.87C200.883 285.701 205.282 296.323 205.282 307.398V309.718C205.282 310.026 205.159 310.321 204.942 310.539C204.724 310.756 204.429 310.878 204.122 310.878H107.86C107.552 310.878 107.257 310.756 107.04 310.539C106.822 310.321 106.7 310.026 106.7 309.718V266.799Z" fill="#26A0DA" fill-opacity="0.1"/>
<path id="Vector_17" d="M106.7 373.517C106.7 373.21 106.822 372.915 107.04 372.697C107.257 372.48 107.552 372.357 107.86 372.357H150.772C151.079 372.357 151.374 372.48 151.592 372.697C151.809 372.915 151.932 373.21 151.932 373.517V429.197C151.932 440.272 147.533 450.894 139.703 458.726C131.873 466.557 121.253 470.957 110.18 470.957H107.86C107.552 470.957 107.257 470.835 107.04 470.617C106.822 470.4 106.7 470.104 106.7 469.797V373.517Z" fill="#8CDAFF" fill-opacity="0.1"/>
<path id="Vector_18" d="M158.89 41.7598C158.89 30.6844 163.289 20.0626 171.119 12.2311C178.949 4.39968 189.568 0 200.642 0L202.961 0C203.269 0 203.564 0.122213 203.781 0.339754C203.999 0.557295 204.121 0.852344 204.121 1.15999V56.8397C204.121 67.915 199.722 78.5368 191.892 86.3683C184.062 94.1997 173.442 98.5994 162.369 98.5994H160.049C159.742 98.5994 159.447 98.4772 159.229 98.2597C159.012 98.0421 158.89 97.7471 158.89 97.4394V41.7598Z" fill="#4591C0" fill-opacity="0.1"/>
<path id="Vector_19" d="M158.89 128.759C158.89 122.914 161.211 117.308 165.344 113.175C169.476 109.041 175.081 106.719 180.926 106.719H182.085C187.93 106.719 193.534 109.041 197.667 113.175C201.8 117.308 204.121 122.914 204.121 128.759V129.919C204.121 135.764 201.8 141.37 197.667 145.504C193.534 149.637 187.93 151.959 182.085 151.959H180.926C175.081 151.959 169.476 149.637 165.344 145.504C161.211 141.37 158.89 135.764 158.89 129.919V128.759Z" fill="#4591C0" fill-opacity="0.1"/>
<path id="Vector_20" d="M158.89 320.158C158.89 319.85 159.012 319.555 159.229 319.338C159.447 319.12 159.742 318.998 160.049 318.998H202.961C203.269 318.998 203.564 319.12 203.781 319.338C203.999 319.555 204.121 319.85 204.121 320.158V363.078C204.121 363.385 203.999 363.68 203.781 363.898C203.564 364.116 203.269 364.238 202.961 364.238H160.049C159.742 364.238 159.447 364.116 159.229 363.898C159.012 363.68 158.89 363.385 158.89 363.078V320.158Z" fill="#4591C0" fill-opacity="0.1"/>
<path id="Vector_21" d="M158.89 373.517C158.89 373.21 159.012 372.915 159.229 372.697C159.447 372.48 159.742 372.357 160.049 372.357H215.719C226.792 372.357 237.412 376.757 245.242 384.589C253.072 392.42 257.471 403.042 257.471 414.117V416.437C257.471 416.745 257.349 417.04 257.131 417.257C256.914 417.475 256.619 417.597 256.311 417.597H160.049C159.742 417.597 159.447 417.475 159.229 417.257C159.012 417.04 158.89 416.745 158.89 416.437V373.517Z" fill="#26A0DA" fill-opacity="0.1"/>
<path id="Vector_22" d="M158.89 446.597C158.89 440.752 161.211 435.146 165.344 431.013C169.476 426.88 175.081 424.558 180.926 424.558H182.085C187.93 424.558 193.534 426.88 197.667 431.013C201.8 435.146 204.121 440.752 204.121 446.597V447.757C204.121 453.603 201.8 459.209 197.667 463.342C193.534 467.475 187.93 469.797 182.085 469.797H180.926C175.081 469.797 169.476 467.475 165.344 463.342C161.211 459.209 158.89 453.603 158.89 447.757V446.597Z" fill="#26A0DA" fill-opacity="0.1"/>
<path id="Vector_23" d="M212.24 1.15999C212.24 0.852344 212.362 0.557295 212.58 0.339754C212.797 0.122213 213.092 0 213.4 0L215.72 0C226.793 0 237.413 4.39968 245.243 12.2311C253.073 20.0626 257.472 30.6844 257.472 41.7598V97.4394C257.472 97.7471 257.35 98.0421 257.132 98.2597C256.915 98.4772 256.62 98.5994 256.312 98.5994H213.4C213.092 98.5994 212.797 98.4772 212.58 98.2597C212.362 98.0421 212.24 97.7471 212.24 97.4394V1.15999Z" fill="#4591C0" fill-opacity="0.1"/>
<path id="Vector_24" d="M212.24 107.879C212.24 107.572 212.362 107.277 212.58 107.059C212.797 106.841 213.092 106.719 213.4 106.719H215.72C226.793 106.719 237.413 111.119 245.243 118.95C253.073 126.782 257.472 137.404 257.472 148.479V204.159C257.472 204.466 257.35 204.761 257.132 204.979C256.915 205.196 256.62 205.319 256.312 205.319H213.4C213.092 205.319 212.797 205.196 212.58 204.979C212.362 204.761 212.24 204.466 212.24 204.159V107.879Z" fill="#26A0DA" fill-opacity="0.1"/>
<path id="Vector_25" d="M212.24 213.438C212.24 213.131 212.362 212.836 212.58 212.618C212.797 212.401 213.092 212.278 213.4 212.278H256.312C256.62 212.278 256.915 212.401 257.132 212.618C257.35 212.836 257.472 213.131 257.472 213.438V269.118C257.472 280.193 253.073 290.815 245.243 298.647C237.413 306.478 226.793 310.878 215.72 310.878H213.4C213.092 310.878 212.797 310.756 212.58 310.538C212.362 310.32 212.24 310.025 212.24 309.718V213.438Z" fill="#4591C0" fill-opacity="0.1"/>
<path id="Vector_26" d="M212.24 320.158C212.24 319.85 212.362 319.555 212.58 319.338C212.797 319.12 213.092 318.998 213.4 318.998H269.07C280.143 318.998 290.763 323.398 298.593 331.229C306.423 339.061 310.822 349.682 310.822 360.758V363.078C310.822 363.385 310.699 363.68 310.482 363.898C310.264 364.116 309.969 364.238 309.662 364.238H213.4C213.092 364.238 212.797 364.116 212.58 363.898C212.362 363.68 212.24 363.385 212.24 363.078V320.158Z" fill="#4591C0" fill-opacity="0.1"/>
<path id="Vector_27" d="M212.24 425.718C212.24 425.41 212.362 425.115 212.58 424.897C212.797 424.68 213.092 424.558 213.4 424.558H256.312C256.62 424.558 256.915 424.68 257.132 424.897C257.35 425.115 257.472 425.41 257.472 425.718V468.637C257.472 468.945 257.35 469.24 257.132 469.458C256.915 469.675 256.62 469.797 256.312 469.797H213.4C213.092 469.797 212.797 469.675 212.58 469.458C212.362 469.24 212.24 468.945 212.24 468.637V425.718Z" fill="#4591C0" fill-opacity="0.1"/>
<path id="Vector_28" d="M265.59 41.7598C265.59 30.6844 269.989 20.0626 277.819 12.2311C285.649 4.39968 296.269 0 307.342 0L363.012 0C363.319 0 363.614 0.122213 363.832 0.339754C364.049 0.557295 364.171 0.852344 364.171 1.15999V3.47998C364.171 14.5554 359.772 25.1771 351.942 33.0086C344.112 40.8401 333.493 45.2397 322.419 45.2397H266.75C266.442 45.2397 266.147 45.1175 265.93 44.9C265.712 44.6824 265.59 44.3874 265.59 44.0797V41.7598Z" fill="#26A0DA" fill-opacity="0.1"/>
<path id="Vector_29" d="M265.59 95.1196C265.59 84.0442 269.989 73.4225 277.819 65.591C285.649 57.7595 296.269 53.3599 307.342 53.3599H309.662C309.969 53.3599 310.264 53.4821 310.482 53.6996C310.699 53.9172 310.821 54.2122 310.821 54.5199V110.2C310.821 121.275 306.422 131.897 298.592 139.728C290.762 147.56 280.143 151.959 269.069 151.959H266.75C266.442 151.959 266.147 151.837 265.93 151.62C265.712 151.402 265.59 151.107 265.59 150.799V95.1196Z" fill="#8CDAFF" fill-opacity="0.1"/>
<path id="Vector_30" d="M265.59 160.079C265.59 159.771 265.712 159.476 265.93 159.259C266.147 159.041 266.442 158.919 266.75 158.919H322.419C333.493 158.919 344.112 163.319 351.942 171.15C359.772 178.982 364.171 189.603 364.171 200.679V202.999C364.171 203.306 364.049 203.601 363.832 203.819C363.614 204.036 363.319 204.159 363.012 204.159H266.75C266.442 204.159 266.147 204.036 265.93 203.819C265.712 203.601 265.59 203.306 265.59 202.999V160.079Z" fill="#4591C0" fill-opacity="0.1"/>
<path id="Vector_31" d="M265.59 213.438C265.59 213.131 265.712 212.836 265.93 212.618C266.147 212.401 266.442 212.278 266.75 212.278H309.662C309.969 212.278 310.264 212.401 310.482 212.618C310.699 212.836 310.821 213.131 310.821 213.438V309.718C310.821 310.025 310.699 310.32 310.482 310.538C310.264 310.756 309.969 310.878 309.662 310.878H307.342C296.269 310.878 285.649 306.478 277.819 298.647C269.989 290.815 265.59 280.193 265.59 269.118V213.438Z" fill="#26A0DA" fill-opacity="0.1"/>
<path id="Vector_32" d="M265.59 373.517C265.59 373.21 265.712 372.915 265.93 372.697C266.147 372.48 266.442 372.357 266.75 372.357H309.662C309.969 372.357 310.264 372.48 310.482 372.697C310.699 372.915 310.821 373.21 310.821 373.517V469.797C310.821 470.104 310.699 470.4 310.482 470.617C310.264 470.835 309.969 470.957 309.662 470.957H307.342C296.269 470.957 285.649 466.557 277.819 458.726C269.989 450.894 265.59 440.272 265.59 429.197V373.517Z" fill="#4591C0" fill-opacity="0.1"/>
<path id="Vector_33" d="M318.94 54.5199C318.94 54.2122 319.063 53.9172 319.28 53.6996C319.498 53.4821 319.793 53.3599 320.1 53.3599H375.77C386.843 53.3599 397.463 57.7595 405.293 65.591C413.123 73.4225 417.522 84.0442 417.522 95.1196V97.4396C417.522 97.7472 417.4 98.0423 417.182 98.2598C416.965 98.4774 416.67 98.5996 416.362 98.5996H320.1C319.793 98.5996 319.498 98.4774 319.28 98.2598C319.063 98.0423 318.94 97.7472 318.94 97.4396V54.5199Z" fill="#4591C0" fill-opacity="0.1"/>
<path id="Vector_34" d="M318.94 107.879C318.94 107.572 319.063 107.277 319.28 107.059C319.498 106.841 319.793 106.719 320.1 106.719H363.012C363.32 106.719 363.615 106.841 363.832 107.059C364.05 107.277 364.172 107.572 364.172 107.879V150.799C364.172 151.107 364.05 151.402 363.832 151.619C363.615 151.837 363.32 151.959 363.012 151.959H320.1C319.793 151.959 319.498 151.837 319.28 151.619C319.063 151.402 318.94 151.107 318.94 150.799V107.879Z" fill="#4591C0" fill-opacity="0.1"/>
<path id="Vector_35" d="M318.94 213.438C318.94 213.131 319.063 212.836 319.28 212.618C319.498 212.401 319.793 212.278 320.1 212.278H416.362C416.67 212.278 416.965 212.401 417.182 212.618C417.4 212.836 417.522 213.131 417.522 213.438V256.358C417.522 256.666 417.4 256.961 417.182 257.178C416.965 257.396 416.67 257.518 416.362 257.518H360.693C349.619 257.518 338.999 253.118 331.169 245.287C323.339 237.455 318.94 226.834 318.94 215.758V213.438Z" fill="#4591C0" fill-opacity="0.1"/>
<path id="Vector_36" d="M318.94 307.398C318.94 296.323 323.339 285.701 331.169 277.87C338.999 270.038 349.619 265.639 360.693 265.639H416.362C416.67 265.639 416.965 265.761 417.182 265.978C417.4 266.196 417.522 266.491 417.522 266.799V309.718C417.522 310.026 417.4 310.321 417.182 310.539C416.965 310.756 416.67 310.878 416.362 310.878H320.1C319.793 310.878 319.498 310.756 319.28 310.539C319.063 310.321 318.94 310.026 318.94 309.718V307.398Z" fill="#8CDAFF" fill-opacity="0.1"/>
<path id="Vector_37" d="M318.94 360.758C318.94 349.682 323.339 339.061 331.169 331.229C338.999 323.398 349.619 318.998 360.693 318.998H363.012C363.32 318.998 363.615 319.12 363.832 319.338C364.05 319.555 364.172 319.85 364.172 320.158V416.437C364.172 416.745 364.05 417.04 363.832 417.258C363.615 417.475 363.32 417.597 363.012 417.597H360.693C349.619 417.597 338.999 413.198 331.169 405.366C323.339 397.535 318.94 386.913 318.94 375.838V360.758Z" fill="#4591C0" fill-opacity="0.1"/>
<path id="Vector_38" d="M318.94 425.718C318.94 425.41 319.063 425.115 319.28 424.897C319.498 424.68 319.793 424.558 320.1 424.558H363.012C363.32 424.558 363.615 424.68 363.832 424.897C364.05 425.115 364.172 425.41 364.172 425.718V468.637C364.172 468.945 364.05 469.24 363.832 469.458C363.615 469.675 363.32 469.797 363.012 469.797H320.1C319.793 469.797 319.498 469.675 319.28 469.458C319.063 469.24 318.94 468.945 318.94 468.637V425.718Z" fill="#8CDAFF" fill-opacity="0.1"/>
<path id="Vector_39" d="M372.29 1.15999C372.29 0.852344 372.412 0.557295 372.63 0.339754C372.847 0.122213 373.142 0 373.45 0L375.769 0C386.843 0 397.463 4.39968 405.293 12.2311C413.123 20.0626 417.522 30.6844 417.522 41.7598V44.0797C417.522 44.3874 417.399 44.6824 417.182 44.9C416.964 45.1175 416.669 45.2397 416.362 45.2397H373.45C373.142 45.2397 372.847 45.1175 372.63 44.9C372.412 44.6824 372.29 44.3874 372.29 44.0797V1.15999Z" fill="#4591C0" fill-opacity="0.1"/>
<path id="Vector_40" d="M372.29 107.879C372.29 107.572 372.412 107.277 372.63 107.059C372.847 106.841 373.142 106.719 373.45 106.719H416.362C416.669 106.719 416.964 106.841 417.182 107.059C417.399 107.277 417.522 107.572 417.522 107.879V204.159C417.522 204.466 417.399 204.761 417.182 204.979C416.964 205.196 416.669 205.319 416.362 205.319H414.042C402.969 205.319 392.349 200.919 384.519 193.087C376.689 185.256 372.29 174.634 372.29 163.559V107.879Z" fill="#26A0DA" fill-opacity="0.1"/>
<path id="Vector_41" d="M372.29 320.158C372.29 319.85 372.412 319.555 372.63 319.338C372.847 319.12 373.142 318.998 373.45 318.998H429.119C440.193 318.998 450.813 323.398 458.643 331.229C466.473 339.061 470.871 349.682 470.871 360.758V363.078C470.871 363.385 470.749 363.68 470.532 363.898C470.314 364.116 470.019 364.238 469.712 364.238H373.45C373.142 364.238 372.847 364.116 372.63 363.898C372.412 363.68 372.29 363.385 372.29 363.078V320.158Z" fill="#8CDAFF" fill-opacity="0.1"/>
<path id="Vector_42" d="M372.29 373.517C372.29 373.21 372.412 372.915 372.63 372.697C372.847 372.48 373.142 372.357 373.45 372.357H416.362C416.669 372.357 416.964 372.48 417.182 372.697C417.399 372.915 417.522 373.21 417.522 373.517V469.797C417.522 470.104 417.399 470.4 417.182 470.617C416.964 470.835 416.669 470.957 416.362 470.957H373.45C373.142 470.957 372.847 470.835 372.63 470.617C372.412 470.4 372.29 470.104 372.29 469.797V373.517Z" fill="#26A0DA" fill-opacity="0.1"/>
<path id="Vector_43" d="M424.48 1.15999C424.48 0.852344 424.603 0.557295 424.82 0.339754C425.038 0.122213 425.333 0 425.64 0L521.902 0C522.21 0 522.505 0.122213 522.722 0.339754C522.94 0.557295 523.062 0.852344 523.062 1.15999V44.0797C523.062 44.3874 522.94 44.6824 522.722 44.9C522.505 45.1175 522.21 45.2397 521.902 45.2397H466.233C455.159 45.2397 444.539 40.8401 436.709 33.0086C428.879 25.1771 424.48 14.5554 424.48 3.47998V1.15999Z" fill="#4591C0" fill-opacity="0.1"/>
<path id="Vector_44" d="M424.48 54.5199C424.48 54.2122 424.603 53.9172 424.82 53.6996C425.038 53.4821 425.333 53.3599 425.64 53.3599H481.31C492.383 53.3599 503.003 57.7595 510.833 65.591C518.663 73.4225 523.062 84.0442 523.062 95.1196V97.4396C523.062 97.7472 522.94 98.0423 522.722 98.2598C522.505 98.4774 522.21 98.5996 521.902 98.5996H425.64C425.333 98.5996 425.038 98.4774 424.82 98.2598C424.603 98.0423 424.48 97.7472 424.48 97.4396V54.5199Z" fill="#8CDAFF" fill-opacity="0.1"/>
<path id="Vector_45" d="M424.48 107.879C424.48 107.572 424.603 107.277 424.82 107.059C425.038 106.841 425.333 106.719 425.64 106.719H521.902C522.21 106.719 522.505 106.841 522.722 107.059C522.94 107.277 523.062 107.572 523.062 107.879V150.799C523.062 151.107 522.94 151.402 522.722 151.619C522.505 151.837 522.21 151.959 521.902 151.959H425.64C425.333 151.959 425.038 151.837 424.82 151.619C424.603 151.402 424.48 151.107 424.48 150.799V107.879Z" fill="#8CDAFF" fill-opacity="0.1"/>
<path id="Vector_46" d="M424.48 160.079C424.48 159.771 424.603 159.476 424.82 159.259C425.038 159.041 425.333 158.919 425.64 158.919H427.96C439.033 158.919 449.653 163.319 457.483 171.15C465.313 178.982 469.712 189.603 469.712 200.679V256.358C469.712 256.666 469.59 256.961 469.372 257.179C469.155 257.396 468.86 257.518 468.552 257.518H425.64C425.333 257.518 425.038 257.396 424.82 257.179C424.603 256.961 424.48 256.666 424.48 256.358V160.079Z" fill="#8CDAFF" fill-opacity="0.1"/>
<path id="Vector_47" d="M424.48 307.398C424.48 296.323 428.879 285.701 436.709 277.87C444.539 270.038 455.159 265.639 466.233 265.639H468.552C468.86 265.639 469.155 265.761 469.372 265.978C469.59 266.196 469.712 266.491 469.712 266.799V309.718C469.712 310.026 469.59 310.321 469.372 310.539C469.155 310.756 468.86 310.878 468.552 310.878H425.64C425.333 310.878 425.038 310.756 424.82 310.539C424.603 310.321 424.48 310.026 424.48 309.718V307.398Z" fill="#8CDAFF" fill-opacity="0.1"/>
<path id="Vector_48" d="M424.48 373.517C424.48 373.21 424.603 372.915 424.82 372.697C425.038 372.48 425.333 372.357 425.64 372.357H468.552C468.86 372.357 469.155 372.48 469.372 372.697C469.59 372.915 469.712 373.21 469.712 373.517V469.797C469.712 470.104 469.59 470.4 469.372 470.617C469.155 470.835 468.86 470.957 468.552 470.957H466.233C455.159 470.957 444.539 466.557 436.709 458.726C428.879 450.894 424.48 440.272 424.48 429.197V373.517Z" fill="#26A0DA" fill-opacity="0.1"/>
<path id="Vector_49" d="M477.83 200.679C477.83 189.603 482.229 178.982 490.059 171.15C497.889 163.319 508.509 158.919 519.582 158.919H521.902C522.209 158.919 522.504 159.041 522.722 159.259C522.939 159.476 523.062 159.771 523.062 160.079V215.759C523.062 226.834 518.663 237.456 510.833 245.287C503.003 253.119 492.383 257.518 481.309 257.518H478.99C478.682 257.518 478.387 257.396 478.17 257.179C477.952 256.961 477.83 256.666 477.83 256.358V200.679Z" fill="#4591C0" fill-opacity="0.1"/>
<path id="Vector_50" d="M477.83 266.799C477.83 266.491 477.952 266.196 478.17 265.978C478.387 265.761 478.682 265.639 478.99 265.639H575.252C575.559 265.639 575.854 265.761 576.072 265.978C576.289 266.196 576.412 266.491 576.412 266.799V269.119C576.412 280.194 572.013 290.816 564.183 298.647C556.353 306.479 545.733 310.878 534.659 310.878H519.582C508.509 310.878 497.889 306.479 490.059 298.647C482.229 290.816 477.83 280.194 477.83 269.119V266.799Z" fill="#26A0DA" fill-opacity="0.1"/>
<path id="Vector_51" d="M477.83 360.758C477.83 349.682 482.229 339.061 490.059 331.229C497.889 323.398 508.509 318.998 519.582 318.998H521.902C522.209 318.998 522.504 319.12 522.722 319.338C522.939 319.555 523.062 319.85 523.062 320.158V375.838C523.062 386.913 518.663 397.535 510.833 405.366C503.003 413.198 492.383 417.597 481.309 417.597H478.99C478.682 417.597 478.387 417.475 478.17 417.258C477.952 417.04 477.83 416.745 477.83 416.437V360.758Z" fill="#26A0DA" fill-opacity="0.1"/>
<path id="Vector_52" d="M477.83 425.718C477.83 425.41 477.952 425.115 478.17 424.897C478.387 424.68 478.682 424.558 478.99 424.558H481.309C492.383 424.558 503.003 428.957 510.833 436.789C518.663 444.62 523.062 455.242 523.062 466.317V468.637C523.062 468.945 522.939 469.24 522.722 469.458C522.504 469.675 522.209 469.797 521.902 469.797H478.99C478.682 469.797 478.387 469.675 478.17 469.458C477.952 469.24 477.83 468.945 477.83 468.637V425.718Z" fill="#8CDAFF" fill-opacity="0.1"/>
<path id="Vector_53" d="M531.18 41.7598C531.18 30.6844 535.579 20.0626 543.409 12.2311C551.239 4.39968 561.858 0 572.932 0L588.009 0C599.082 0 609.702 4.39968 617.532 12.2311C625.362 20.0626 629.761 30.6844 629.761 41.7598V44.0797C629.761 44.3874 629.639 44.6824 629.421 44.9C629.204 45.1175 628.909 45.2397 628.601 45.2397H532.339C532.032 45.2397 531.737 45.1175 531.519 44.9C531.302 44.6824 531.18 44.3874 531.18 44.0797V41.7598Z" fill="#8CDAFF" fill-opacity="0.1"/>
<path id="Vector_54" d="M531.18 95.1196C531.18 84.0442 535.579 73.4225 543.409 65.591C551.239 57.7595 561.858 53.3599 572.932 53.3599H575.251C575.559 53.3599 575.854 53.4821 576.071 53.6996C576.289 53.9172 576.411 54.2122 576.411 54.5199V150.799C576.411 151.107 576.289 151.402 576.071 151.62C575.854 151.837 575.559 151.959 575.251 151.959H572.932C561.858 151.959 551.239 147.56 543.409 139.728C535.579 131.897 531.18 121.275 531.18 110.2V95.1196Z" fill="#26A0DA" fill-opacity="0.1"/>
<path id="Vector_55" d="M531.18 160.079C531.18 159.771 531.302 159.476 531.519 159.259C531.737 159.041 532.032 158.919 532.339 158.919H575.251C575.559 158.919 575.854 159.041 576.071 159.259C576.289 159.476 576.411 159.771 576.411 160.079V256.358C576.411 256.666 576.289 256.961 576.071 257.179C575.854 257.396 575.559 257.518 575.251 257.518H532.339C532.032 257.518 531.737 257.396 531.519 257.179C531.302 256.961 531.18 256.666 531.18 256.358V160.079Z" fill="#8CDAFF" fill-opacity="0.1"/>
<path id="Vector_56" d="M531.18 320.158C531.18 319.85 531.302 319.555 531.519 319.338C531.737 319.12 532.032 318.998 532.339 318.998H575.251C575.559 318.998 575.854 319.12 576.071 319.338C576.289 319.555 576.411 319.85 576.411 320.158V363.078C576.411 363.385 576.289 363.68 576.071 363.898C575.854 364.116 575.559 364.238 575.251 364.238H532.339C532.032 364.238 531.737 364.116 531.519 363.898C531.302 363.68 531.18 363.385 531.18 363.078V320.158Z" fill="#8CDAFF" fill-opacity="0.1"/>
<path id="Vector_57" d="M531.18 373.517C531.18 373.21 531.302 372.915 531.519 372.697C531.737 372.48 532.032 372.357 532.339 372.357H628.601C628.909 372.357 629.204 372.48 629.421 372.697C629.639 372.915 629.761 373.21 629.761 373.517V375.837C629.761 386.913 625.362 397.535 617.532 405.366C609.702 413.197 599.082 417.597 588.009 417.597H572.932C561.858 417.597 551.239 413.197 543.409 405.366C535.579 397.535 531.18 386.913 531.18 375.837V373.517Z" fill="#8CDAFF" fill-opacity="0.1"/>
<path id="Vector_58" d="M531.18 425.718C531.18 425.41 531.302 425.115 531.519 424.897C531.737 424.68 532.032 424.558 532.339 424.558H575.251C575.559 424.558 575.854 424.68 576.071 424.897C576.289 425.115 576.411 425.41 576.411 425.718V428.038C576.411 439.113 572.012 449.735 564.182 457.566C556.352 465.398 545.732 469.797 534.659 469.797H532.339C532.032 469.797 531.737 469.675 531.519 469.458C531.302 469.24 531.18 468.945 531.18 468.637V425.718Z" fill="#4591C0" fill-opacity="0.1"/>
<path id="Vector_59" d="M584.53 54.5199C584.53 54.2122 584.652 53.9172 584.87 53.6996C585.087 53.4821 585.382 53.3599 585.69 53.3599H588.01C599.083 53.3599 609.703 57.7595 617.533 65.591C625.363 73.4225 629.762 84.0442 629.762 95.1196V97.4396C629.762 97.7472 629.64 98.0423 629.422 98.2598C629.205 98.4774 628.91 98.5996 628.602 98.5996H585.69C585.382 98.5996 585.087 98.4774 584.87 98.2598C584.652 98.0423 584.53 97.7472 584.53 97.4396V54.5199Z" fill="#8CDAFF" fill-opacity="0.1"/>
<path id="Vector_60" d="M584.53 107.879C584.53 107.572 584.652 107.277 584.87 107.059C585.087 106.841 585.382 106.719 585.69 106.719H588.01C599.083 106.719 609.703 111.119 617.533 118.95C625.363 126.782 629.762 137.404 629.762 148.479V204.159C629.762 204.466 629.64 204.761 629.422 204.979C629.205 205.196 628.91 205.319 628.602 205.319H585.69C585.382 205.319 585.087 205.196 584.87 204.979C584.652 204.761 584.53 204.466 584.53 204.159V107.879Z" fill="#26A0DA" fill-opacity="0.1"/>
<path id="Vector_61" d="M584.53 213.438C584.53 213.131 584.652 212.836 584.87 212.618C585.087 212.401 585.382 212.278 585.69 212.278H681.952C682.26 212.278 682.555 212.401 682.772 212.618C682.99 212.836 683.112 213.131 683.112 213.438V256.358C683.112 256.666 682.99 256.961 682.772 257.178C682.555 257.396 682.26 257.518 681.952 257.518H585.69C585.382 257.518 585.087 257.396 584.87 257.178C584.652 256.961 584.53 256.666 584.53 256.358V213.438Z" fill="#4591C0" fill-opacity="0.1"/>
<path id="Vector_62" d="M584.53 307.398C584.53 296.323 588.929 285.701 596.759 277.87C604.589 270.038 615.209 265.639 626.282 265.639H628.602C628.91 265.639 629.205 265.761 629.422 265.978C629.64 266.196 629.762 266.491 629.762 266.799V363.078C629.762 363.386 629.64 363.681 629.422 363.898C629.205 364.116 628.91 364.238 628.602 364.238H626.282C615.209 364.238 604.589 359.838 596.759 352.007C588.929 344.175 584.53 333.554 584.53 322.478V307.398Z" fill="#26A0DA" fill-opacity="0.1"/>
<path id="Vector_63" d="M584.53 425.718C584.53 425.41 584.652 425.115 584.87 424.897C585.087 424.68 585.382 424.558 585.69 424.558H628.602C628.91 424.558 629.205 424.68 629.422 424.897C629.64 425.115 629.762 425.41 629.762 425.718V468.637C629.762 468.945 629.64 469.24 629.422 469.458C629.205 469.675 628.91 469.797 628.602 469.797H626.282C615.209 469.797 604.589 465.398 596.759 457.566C588.929 449.735 584.53 439.113 584.53 428.038V425.718Z" fill="#26A0DA" fill-opacity="0.1"/>
<path id="Vector_64" d="M636.721 41.7598C636.721 30.6844 641.12 20.0626 648.95 12.2311C656.78 4.39968 667.399 0 678.473 0L680.792 0C681.1 0 681.395 0.122213 681.612 0.339754C681.83 0.557295 681.952 0.852344 681.952 1.15999V97.4394C681.952 97.7471 681.83 98.0421 681.612 98.2597C681.395 98.4772 681.1 98.5994 680.792 98.5994H678.473C667.399 98.5994 656.78 94.1997 648.95 86.3683C641.12 78.5368 636.721 67.915 636.721 56.8397V41.7598Z" fill="#8CDAFF" fill-opacity="0.1"/>
<path id="Vector_65" d="M636.721 148.479C636.721 137.404 641.12 126.782 648.95 118.95C656.78 111.119 667.399 106.719 678.473 106.719H680.792C681.1 106.719 681.395 106.841 681.612 107.059C681.83 107.277 681.952 107.572 681.952 107.879V204.159C681.952 204.466 681.83 204.761 681.612 204.979C681.395 205.196 681.1 205.319 680.792 205.319H678.473C667.399 205.319 656.78 200.919 648.95 193.087C641.12 185.256 636.721 174.634 636.721 163.559V148.479Z" fill="#26A0DA" fill-opacity="0.1"/>
<path id="Vector_66" d="M636.721 287.679C636.721 281.833 639.042 276.227 643.175 272.094C647.307 267.961 652.912 265.639 658.757 265.639H659.916C665.761 265.639 671.366 267.961 675.498 272.094C679.631 276.227 681.952 281.833 681.952 287.679V288.839C681.952 294.684 679.631 300.29 675.498 304.423C671.366 308.556 665.761 310.878 659.916 310.878H658.757C652.912 310.878 647.307 308.556 643.175 304.423C639.042 300.29 636.721 294.684 636.721 288.839V287.679Z" fill="#8CDAFF" fill-opacity="0.1"/>
<path id="Vector_67" d="M636.721 320.158C636.721 319.85 636.843 319.555 637.06 319.338C637.278 319.12 637.573 318.998 637.88 318.998H693.55C704.623 318.998 715.243 323.398 723.073 331.229C730.903 339.061 735.302 349.682 735.302 360.758V363.078C735.302 363.385 735.18 363.68 734.962 363.898C734.745 364.116 734.45 364.238 734.142 364.238H678.473C667.399 364.238 656.78 359.838 648.95 352.007C641.12 344.175 636.721 333.553 636.721 322.478V320.158Z" fill="#8CDAFF" fill-opacity="0.1"/>
<path id="Vector_68" d="M636.721 373.517C636.721 373.21 636.843 372.915 637.06 372.697C637.278 372.48 637.573 372.357 637.88 372.357H640.2C651.273 372.357 661.893 376.757 669.723 384.589C677.553 392.42 681.952 403.042 681.952 414.117V416.437C681.952 416.745 681.83 417.04 681.612 417.257C681.395 417.475 681.1 417.597 680.792 417.597H637.88C637.573 417.597 637.278 417.475 637.06 417.257C636.843 417.04 636.721 416.745 636.721 416.437V373.517Z" fill="#8CDAFF" fill-opacity="0.1"/>
<path id="Vector_69" d="M636.721 425.718C636.721 425.41 636.843 425.115 637.06 424.897C637.278 424.68 637.573 424.558 637.88 424.558H680.792C681.1 424.558 681.395 424.68 681.612 424.897C681.83 425.115 681.952 425.41 681.952 425.718V468.637C681.952 468.945 681.83 469.24 681.612 469.458C681.395 469.675 681.1 469.797 680.792 469.797H678.473C667.399 469.797 656.78 465.398 648.95 457.566C641.12 449.735 636.721 439.113 636.721 428.038V425.718Z" fill="#4591C0" fill-opacity="0.1"/>
<path id="Vector_70" d="M690.07 1.15999C690.07 0.852344 690.193 0.557295 690.41 0.339754C690.628 0.122213 690.923 0 691.23 0L787.492 0C787.8 0 788.095 0.122213 788.312 0.339754C788.53 0.557295 788.652 0.852344 788.652 1.15999V3.47998C788.652 14.5554 784.253 25.1771 776.423 33.0086C768.593 40.8401 757.973 45.2397 746.9 45.2397H731.822C720.749 45.2397 710.129 40.8401 702.299 33.0086C694.469 25.1771 690.07 14.5554 690.07 3.47998V1.15999Z" fill="#8CDAFF" fill-opacity="0.1"/>
<path id="Vector_71" d="M690.07 54.5199C690.07 54.2122 690.193 53.9172 690.41 53.6996C690.628 53.4821 690.923 53.3599 691.23 53.3599H734.142C734.45 53.3599 734.745 53.4821 734.962 53.6996C735.18 53.9172 735.302 54.2122 735.302 54.5199V150.799C735.302 151.107 735.18 151.402 734.962 151.62C734.745 151.837 734.45 151.959 734.142 151.959H691.23C690.923 151.959 690.628 151.837 690.41 151.62C690.193 151.402 690.07 151.107 690.07 150.799V54.5199Z" fill="#4591C0" fill-opacity="0.1"/>
<path id="Vector_72" d="M690.07 160.079C690.07 159.771 690.193 159.476 690.41 159.259C690.628 159.041 690.923 158.919 691.23 158.919H693.55C704.623 158.919 715.243 163.319 723.073 171.15C730.903 178.982 735.302 189.603 735.302 200.679V202.999C735.302 203.306 735.18 203.601 734.962 203.819C734.745 204.036 734.45 204.159 734.142 204.159H691.23C690.923 204.159 690.628 204.036 690.41 203.819C690.193 203.601 690.07 203.306 690.07 202.999V160.079Z" fill="#26A0DA" fill-opacity="0.1"/>
<path id="Vector_73" d="M690.07 254.038C690.07 242.963 694.469 232.341 702.299 224.509C710.129 216.678 720.749 212.278 731.822 212.278H787.492C787.8 212.278 788.095 212.401 788.312 212.618C788.53 212.836 788.652 213.131 788.652 213.438V215.758C788.652 226.834 784.253 237.455 776.423 245.287C768.593 253.118 757.973 257.518 746.9 257.518H691.23C690.923 257.518 690.628 257.396 690.41 257.178C690.193 256.961 690.07 256.666 690.07 256.358V254.038Z" fill="#4591C0" fill-opacity="0.1"/>
<path id="Vector_74" d="M690.07 307.398C690.07 296.323 694.469 285.701 702.299 277.87C710.129 270.038 720.749 265.639 731.822 265.639H746.9C757.973 265.639 768.593 270.038 776.423 277.87C784.253 285.701 788.652 296.323 788.652 307.398V309.718C788.652 310.026 788.53 310.321 788.312 310.539C788.095 310.756 787.8 310.878 787.492 310.878H691.23C690.923 310.878 690.628 310.756 690.41 310.539C690.193 310.321 690.07 310.026 690.07 309.718V307.398Z" fill="#8CDAFF" fill-opacity="0.1"/>
<path id="Vector_75" d="M690.07 414.117C690.07 403.042 694.469 392.42 702.299 384.589C710.129 376.757 720.749 372.357 731.822 372.357H787.492C787.8 372.357 788.095 372.48 788.312 372.697C788.53 372.915 788.652 373.21 788.652 373.517V416.437C788.652 416.745 788.53 417.04 788.312 417.257C788.095 417.475 787.8 417.597 787.492 417.597H691.23C690.923 417.597 690.628 417.475 690.41 417.257C690.193 417.04 690.07 416.745 690.07 416.437V414.117Z" fill="#8CDAFF" fill-opacity="0.1"/>
<path id="Vector_76" d="M690.07 425.718C690.07 425.41 690.193 425.115 690.41 424.897C690.628 424.68 690.923 424.558 691.23 424.558H734.142C734.45 424.558 734.745 424.68 734.962 424.897C735.18 425.115 735.302 425.41 735.302 425.718V428.038C735.302 439.113 730.903 449.735 723.073 457.566C715.243 465.398 704.623 469.797 693.55 469.797H691.23C690.923 469.797 690.628 469.675 690.41 469.458C690.193 469.24 690.07 468.945 690.07 468.637V425.718Z" fill="#4591C0" fill-opacity="0.1"/>
<path id="Vector_77" d="M743.42 54.5199C743.42 54.2122 743.542 53.9172 743.76 53.6996C743.977 53.4821 744.272 53.3599 744.58 53.3599H840.842C841.149 53.3599 841.444 53.4821 841.662 53.6996C841.879 53.9172 842.001 54.2122 842.001 54.5199V97.4396C842.001 97.7472 841.879 98.0423 841.662 98.2598C841.444 98.4774 841.149 98.5996 840.842 98.5996H785.172C774.099 98.5996 763.479 94.1999 755.649 86.3684C747.819 78.537 743.42 67.9152 743.42 56.8398V54.5199Z" fill="#8CDAFF" fill-opacity="0.1"/>
<path id="Vector_78" d="M743.42 107.879C743.42 107.572 743.542 107.277 743.76 107.059C743.977 106.841 744.272 106.719 744.58 106.719H840.842C841.149 106.719 841.444 106.841 841.662 107.059C841.879 107.277 842.001 107.572 842.001 107.879V110.199C842.001 121.275 837.603 131.896 829.772 139.728C821.942 147.559 811.323 151.959 800.249 151.959H785.172C774.099 151.959 763.479 147.559 755.649 139.728C747.819 131.896 743.42 121.275 743.42 110.199V107.879Z" fill="#26A0DA" fill-opacity="0.1"/>
<path id="Vector_79" d="M743.42 160.079C743.42 159.771 743.542 159.476 743.76 159.259C743.977 159.041 744.272 158.919 744.58 158.919H840.842C841.149 158.919 841.444 159.041 841.662 159.259C841.879 159.476 842.001 159.771 842.001 160.079V162.399C842.001 173.474 837.603 184.096 829.772 191.928C821.942 199.759 811.323 204.159 800.249 204.159H744.58C744.272 204.159 743.977 204.036 743.76 203.819C743.542 203.601 743.42 203.306 743.42 202.999V160.079Z" fill="#8CDAFF" fill-opacity="0.1"/>
<path id="Vector_80" d="M743.42 320.158C743.42 319.85 743.542 319.555 743.76 319.338C743.977 319.12 744.272 318.998 744.58 318.998H840.842C841.149 318.998 841.444 319.12 841.662 319.338C841.879 319.555 842.001 319.85 842.001 320.158V363.078C842.001 363.385 841.879 363.68 841.662 363.898C841.444 364.116 841.149 364.238 840.842 364.238H785.172C774.099 364.238 763.479 359.838 755.649 352.007C747.819 344.175 743.42 333.553 743.42 322.478V320.158Z" fill="#4591C0" fill-opacity="0.1"/>
<path id="Vector_81" d="M743.42 425.718C743.42 425.41 743.542 425.115 743.76 424.897C743.977 424.68 744.272 424.558 744.58 424.558H787.492C787.799 424.558 788.094 424.68 788.312 424.897C788.529 425.115 788.651 425.41 788.651 425.718V428.038C788.651 439.113 784.253 449.735 776.423 457.566C768.592 465.398 757.973 469.797 746.899 469.797H744.58C744.272 469.797 743.977 469.675 743.76 469.458C743.542 469.24 743.42 468.945 743.42 468.637V425.718Z" fill="#8CDAFF" fill-opacity="0.1"/>
<path id="Vector_82" d="M796.771 1.15999C796.771 0.852344 796.893 0.557295 797.11 0.339754C797.328 0.122213 797.623 0 797.93 0L853.6 0C864.673 0 875.293 4.39968 883.123 12.2311C890.953 20.0626 895.352 30.6844 895.352 41.7598V44.0797C895.352 44.3874 895.23 44.6824 895.012 44.9C894.795 45.1175 894.5 45.2397 894.192 45.2397H797.93C797.623 45.2397 797.328 45.1175 797.11 44.9C796.893 44.6824 796.771 44.3874 796.771 44.0797V1.15999Z" fill="#4591C0" fill-opacity="0.1"/>
<path id="Vector_83" d="M796.771 213.438C796.771 213.131 796.893 212.836 797.11 212.618C797.328 212.401 797.623 212.278 797.93 212.278H840.842C841.15 212.278 841.445 212.401 841.662 212.618C841.88 212.836 842.002 213.131 842.002 213.438V269.118C842.002 280.193 837.603 290.815 829.773 298.647C821.943 306.478 811.323 310.878 800.25 310.878H797.93C797.623 310.878 797.328 310.756 797.11 310.538C796.893 310.32 796.771 310.025 796.771 309.718V213.438Z" fill="#8CDAFF" fill-opacity="0.1"/>
<path id="Vector_84" d="M796.771 414.117C796.771 403.042 801.169 392.42 808.999 384.589C816.829 376.757 827.449 372.357 838.523 372.357H840.842C841.15 372.357 841.445 372.48 841.662 372.697C841.88 372.915 842.002 373.21 842.002 373.517V469.797C842.002 470.104 841.88 470.4 841.662 470.617C841.445 470.835 841.15 470.957 840.842 470.957H797.93C797.623 470.957 797.328 470.835 797.11 470.617C796.893 470.4 796.771 470.104 796.771 469.797V414.117Z" fill="#8CDAFF" fill-opacity="0.1"/>
<path id="Vector_85" d="M850.12 95.1196C850.12 84.0442 854.519 73.4225 862.349 65.591C870.179 57.7595 880.799 53.3599 891.872 53.3599H894.192C894.499 53.3599 894.794 53.4821 895.012 53.6996C895.229 53.9172 895.352 54.2122 895.352 54.5199V150.799C895.352 151.107 895.229 151.402 895.012 151.62C894.794 151.837 894.499 151.959 894.192 151.959H891.872C880.799 151.959 870.179 147.56 862.349 139.728C854.519 131.897 850.12 121.275 850.12 110.2V95.1196Z" fill="#26A0DA" fill-opacity="0.1"/>
<path id="Vector_86" d="M850.12 160.079C850.12 159.771 850.242 159.476 850.46 159.259C850.677 159.041 850.972 158.919 851.28 158.919H853.599C864.673 158.919 875.293 163.319 883.123 171.15C890.953 178.982 895.352 189.603 895.352 200.679V256.358C895.352 256.666 895.229 256.961 895.012 257.179C894.794 257.396 894.499 257.518 894.192 257.518H851.28C850.972 257.518 850.677 257.396 850.46 257.179C850.242 256.961 850.12 256.666 850.12 256.358V160.079Z" fill="#8CDAFF" fill-opacity="0.1"/>
<path id="Vector_87" d="M850.12 266.799C850.12 266.491 850.242 266.196 850.46 265.978C850.677 265.761 850.972 265.639 851.28 265.639H894.192C894.499 265.639 894.794 265.761 895.012 265.978C895.229 266.196 895.352 266.491 895.352 266.799V309.718C895.352 310.026 895.229 310.321 895.012 310.539C894.794 310.756 894.499 310.878 894.192 310.878H851.28C850.972 310.878 850.677 310.756 850.46 310.539C850.242 310.321 850.12 310.026 850.12 309.718V266.799Z" fill="#8CDAFF" fill-opacity="0.1"/>
<path id="Vector_88" d="M850.12 360.758C850.12 349.682 854.519 339.061 862.349 331.229C870.179 323.398 880.799 318.998 891.872 318.998H947.542C947.849 318.998 948.144 319.12 948.362 319.338C948.579 319.555 948.702 319.85 948.702 320.158V363.078C948.702 363.385 948.579 363.68 948.362 363.898C948.144 364.116 947.849 364.238 947.542 364.238H851.28C850.972 364.238 850.677 364.116 850.46 363.898C850.242 363.68 850.12 363.385 850.12 363.078V360.758Z" fill="#4591C0" fill-opacity="0.1"/>
<path id="Vector_89" d="M850.12 373.517C850.12 373.21 850.242 372.915 850.46 372.697C850.677 372.48 850.972 372.357 851.28 372.357H947.542C947.849 372.357 948.144 372.48 948.362 372.697C948.579 372.915 948.702 373.21 948.702 373.517V416.437C948.702 416.745 948.579 417.04 948.362 417.257C948.144 417.475 947.849 417.597 947.542 417.597H851.28C850.972 417.597 850.677 417.475 850.46 417.257C850.242 417.04 850.12 416.745 850.12 416.437V373.517Z" fill="#4591C0" fill-opacity="0.1"/>
<path id="Vector_90" d="M850.12 425.718C850.12 425.41 850.242 425.115 850.46 424.897C850.677 424.68 850.972 424.558 851.28 424.558H853.599C864.673 424.558 875.293 428.957 883.123 436.789C890.953 444.62 895.352 455.242 895.352 466.317V468.637C895.352 468.945 895.229 469.24 895.012 469.458C894.794 469.675 894.499 469.797 894.192 469.797H851.28C850.972 469.797 850.677 469.675 850.46 469.458C850.242 469.24 850.12 468.945 850.12 468.637V425.718Z" fill="#4591C0" fill-opacity="0.1"/>
<path id="Vector_91" d="M902.311 41.7598C902.311 30.6844 906.709 20.0626 914.539 12.2311C922.369 4.39968 932.989 0 944.063 0L946.382 0C946.69 0 946.985 0.122213 947.202 0.339754C947.42 0.557295 947.542 0.852344 947.542 1.15999V97.4394C947.542 97.7471 947.42 98.0421 947.202 98.2597C946.985 98.4772 946.69 98.5994 946.382 98.5994H903.47C903.163 98.5994 902.868 98.4772 902.65 98.2597C902.433 98.0421 902.311 97.7471 902.311 97.4394V41.7598Z" fill="#4591C0" fill-opacity="0.1"/>
<path id="Vector_92" d="M902.311 107.879C902.311 107.572 902.433 107.277 902.65 107.059C902.868 106.841 903.163 106.719 903.47 106.719H905.79C916.863 106.719 927.483 111.119 935.313 118.95C943.143 126.782 947.542 137.404 947.542 148.479V204.159C947.542 204.466 947.42 204.761 947.202 204.979C946.985 205.196 946.69 205.319 946.382 205.319H903.47C903.163 205.319 902.868 205.196 902.65 204.979C902.433 204.761 902.311 204.466 902.311 204.159V107.879Z" fill="#8CDAFF" fill-opacity="0.1"/>
<path id="Vector_93" d="M902.311 213.438C902.311 213.131 902.433 212.836 902.65 212.618C902.868 212.401 903.163 212.278 903.47 212.278H959.14C970.213 212.278 980.833 216.678 988.663 224.509C996.493 232.341 1000.89 242.963 1000.89 254.038V256.358C1000.89 256.666 1000.77 256.961 1000.55 257.178C1000.33 257.396 1000.04 257.518 999.732 257.518H944.063C932.989 257.518 922.369 253.118 914.539 245.287C906.709 237.455 902.311 226.834 902.311 215.758V213.438Z" fill="#26A0DA" fill-opacity="0.1"/>
<path id="Vector_94" d="M902.311 266.799C902.311 266.491 902.433 266.196 902.65 265.978C902.868 265.761 903.163 265.639 903.47 265.639H959.14C970.213 265.639 980.833 270.038 988.663 277.87C996.493 285.701 1000.89 296.323 1000.89 307.398V309.718C1000.89 310.026 1000.77 310.321 1000.55 310.539C1000.33 310.756 1000.04 310.878 999.732 310.878H944.063C932.989 310.878 922.369 306.479 914.539 298.647C906.709 290.816 902.311 280.194 902.311 269.119V266.799Z" fill="#4591C0" fill-opacity="0.1"/>
<path id="Vector_95" d="M902.311 425.718C902.311 425.41 902.433 425.115 902.65 424.897C902.868 424.68 903.163 424.558 903.47 424.558H946.382C946.69 424.558 946.985 424.68 947.202 424.897C947.42 425.115 947.542 425.41 947.542 425.718V428.038C947.542 439.113 943.143 449.735 935.313 457.566C927.483 465.398 916.863 469.797 905.79 469.797H903.47C903.163 469.797 902.868 469.675 902.65 469.458C902.433 469.24 902.311 468.945 902.311 468.637V425.718Z" fill="#26A0DA" fill-opacity="0.1"/>
<path id="Vector_96" d="M955.66 1.15999C955.66 0.852344 955.782 0.557295 956 0.339754C956.217 0.122213 956.512 0 956.82 0L959.14 0C970.213 0 980.833 4.39968 988.663 12.2311C996.493 20.0626 1000.89 30.6844 1000.89 41.7598V44.0797C1000.89 44.3874 1000.77 44.6824 1000.55 44.9C1000.33 45.1175 1000.04 45.2397 999.732 45.2397H956.82C956.512 45.2397 956.217 45.1175 956 44.9C955.782 44.6824 955.66 44.3874 955.66 44.0797V1.15999Z" fill="#4591C0" fill-opacity="0.1"/>
<path id="Vector_97" d="M955.66 54.5199C955.66 54.2122 955.782 53.9172 956 53.6996C956.217 53.4821 956.512 53.3599 956.82 53.3599H959.14C970.213 53.3599 980.833 57.7595 988.663 65.591C996.493 73.4225 1000.89 84.0442 1000.89 95.1196V110.2C1000.89 121.275 996.493 131.897 988.663 139.728C980.833 147.56 970.213 151.959 959.14 151.959H956.82C956.512 151.959 956.217 151.837 956 151.62C955.782 151.402 955.66 151.107 955.66 150.799V54.5199Z" fill="#4591C0" fill-opacity="0.1"/>
<path id="Vector_98" d="M955.66 180.959C955.66 175.113 957.982 169.508 962.114 165.374C966.247 161.241 971.852 158.919 977.696 158.919H978.856C984.7 158.919 990.305 161.241 994.438 165.374C998.57 169.508 1000.89 175.113 1000.89 180.959V182.119C1000.89 187.964 998.57 193.57 994.438 197.703C990.305 201.837 984.7 204.159 978.856 204.159H977.696C971.852 204.159 966.247 201.837 962.114 197.703C957.982 193.57 955.66 187.964 955.66 182.119V180.959Z" fill="#26A0DA" fill-opacity="0.1"/>
<path id="Vector_99" d="M955.66 320.158C955.66 319.85 955.782 319.555 956 319.338C956.217 319.12 956.512 318.998 956.82 318.998H959.14C970.213 318.998 980.833 323.398 988.663 331.229C996.493 339.061 1000.89 349.682 1000.89 360.758V363.078C1000.89 363.385 1000.77 363.68 1000.55 363.898C1000.33 364.116 1000.04 364.238 999.732 364.238H956.82C956.512 364.238 956.217 364.116 956 363.898C955.782 363.68 955.66 363.385 955.66 363.078V320.158Z" fill="#4591C0" fill-opacity="0.1"/>
<path id="Vector_100" d="M955.66 373.517C955.66 373.21 955.782 372.915 956 372.697C956.217 372.48 956.512 372.357 956.82 372.357H959.14C970.213 372.357 980.833 376.757 988.663 384.589C996.493 392.42 1000.89 403.042 1000.89 414.117V469.797C1000.89 470.104 1000.77 470.4 1000.55 470.617C1000.33 470.835 1000.04 470.957 999.732 470.957H956.82C956.512 470.957 956.217 470.835 956 470.617C955.782 470.4 955.66 470.104 955.66 469.797V373.517Z" fill="#8CDAFF" fill-opacity="0.1"/>
<path id="Vector_101" d="M1009.01 1.15999C1009.01 0.852344 1009.13 0.557295 1009.35 0.339754C1009.57 0.122213 1009.86 0 1010.17 0L1106.43 0C1106.74 0 1107.03 0.122213 1107.25 0.339754C1107.47 0.557295 1107.59 0.852344 1107.59 1.15999V44.0797C1107.59 44.3874 1107.47 44.6824 1107.25 44.9C1107.03 45.1175 1106.74 45.2397 1106.43 45.2397H1050.76C1039.69 45.2397 1029.07 40.8401 1021.24 33.0086C1013.41 25.1771 1009.01 14.5554 1009.01 3.47998V1.15999Z" fill="#4591C0" fill-opacity="0.1"/>
<path id="Vector_102" d="M1009.01 54.5199C1009.01 54.2122 1009.13 53.9172 1009.35 53.6996C1009.57 53.4821 1009.86 53.3599 1010.17 53.3599H1012.49C1023.56 53.3599 1034.18 57.7595 1042.01 65.591C1049.84 73.4225 1054.24 84.0442 1054.24 95.1196V150.799C1054.24 151.107 1054.12 151.402 1053.9 151.62C1053.68 151.837 1053.39 151.959 1053.08 151.959H1050.76C1039.69 151.959 1029.07 147.56 1021.24 139.728C1013.41 131.897 1009.01 121.275 1009.01 110.2V54.5199Z" fill="#26A0DA" fill-opacity="0.1"/>
<path id="Vector_103" d="M1009.01 160.079C1009.01 159.771 1009.13 159.476 1009.35 159.259C1009.57 159.041 1009.86 158.919 1010.17 158.919H1012.49C1023.56 158.919 1034.18 163.319 1042.01 171.15C1049.84 178.982 1054.24 189.603 1054.24 200.679V256.358C1054.24 256.666 1054.12 256.961 1053.9 257.179C1053.68 257.396 1053.39 257.518 1053.08 257.518H1010.17C1009.86 257.518 1009.57 257.396 1009.35 257.179C1009.13 256.961 1009.01 256.666 1009.01 256.358V160.079Z" fill="#8CDAFF" fill-opacity="0.1"/>
<path id="Vector_104" d="M1009.01 266.799C1009.01 266.491 1009.13 266.196 1009.35 265.978C1009.57 265.761 1009.86 265.639 1010.17 265.639H1012.49C1023.56 265.639 1034.18 270.038 1042.01 277.87C1049.84 285.701 1054.24 296.323 1054.24 307.398V309.718C1054.24 310.026 1054.12 310.321 1053.9 310.539C1053.68 310.756 1053.39 310.878 1053.08 310.878H1010.17C1009.86 310.878 1009.57 310.756 1009.35 310.539C1009.13 310.321 1009.01 310.026 1009.01 309.718V266.799Z" fill="#8CDAFF" fill-opacity="0.1"/>
<path id="Vector_105" d="M1009.01 320.158C1009.01 319.85 1009.13 319.555 1009.35 319.338C1009.57 319.12 1009.86 318.998 1010.17 318.998H1106.43C1106.74 318.998 1107.03 319.12 1107.25 319.338C1107.47 319.555 1107.59 319.85 1107.59 320.158V363.078C1107.59 363.385 1107.47 363.68 1107.25 363.898C1107.03 364.116 1106.74 364.238 1106.43 364.238H1050.76C1039.69 364.238 1029.07 359.838 1021.24 352.007C1013.41 344.175 1009.01 333.553 1009.01 322.478V320.158Z" fill="#4591C0" fill-opacity="0.1"/>
<path id="Vector_106" d="M1009.01 373.517C1009.01 373.21 1009.13 372.915 1009.35 372.697C1009.57 372.48 1009.86 372.357 1010.17 372.357H1106.43C1106.74 372.357 1107.03 372.48 1107.25 372.697C1107.47 372.915 1107.59 373.21 1107.59 373.517V416.437C1107.59 416.745 1107.47 417.04 1107.25 417.257C1107.03 417.475 1106.74 417.597 1106.43 417.597H1010.17C1009.86 417.597 1009.57 417.475 1009.35 417.257C1009.13 417.04 1009.01 416.745 1009.01 416.437V373.517Z" fill="#26A0DA" fill-opacity="0.1"/>
<path id="Vector_107" d="M1009.01 425.718C1009.01 425.41 1009.13 425.115 1009.35 424.897C1009.57 424.68 1009.86 424.558 1010.17 424.558H1053.08C1053.39 424.558 1053.68 424.68 1053.9 424.897C1054.12 425.115 1054.24 425.41 1054.24 425.718V428.038C1054.24 439.113 1049.84 449.735 1042.01 457.566C1034.18 465.398 1023.56 469.797 1012.49 469.797H1010.17C1009.86 469.797 1009.57 469.675 1009.35 469.458C1009.13 469.24 1009.01 468.945 1009.01 468.637V425.718Z" fill="#26A0DA" fill-opacity="0.1"/>
<path id="Vector_108" d="M1062.36 54.5199C1062.36 54.2122 1062.48 53.9172 1062.7 53.6996C1062.92 53.4821 1063.21 53.3599 1063.52 53.3599H1119.19C1130.26 53.3599 1140.88 57.7595 1148.71 65.591C1156.54 73.4225 1160.94 84.0442 1160.94 95.1196V97.4396C1160.94 97.7472 1160.82 98.0423 1160.6 98.2598C1160.38 98.4774 1160.09 98.5996 1159.78 98.5996H1104.11C1093.04 98.5996 1082.42 94.1999 1074.59 86.3684C1066.76 78.537 1062.36 67.9152 1062.36 56.8398V54.5199Z" fill="#8CDAFF" fill-opacity="0.1"/>
<path id="Vector_109" d="M1062.36 107.879C1062.36 107.572 1062.48 107.277 1062.7 107.059C1062.92 106.841 1063.21 106.719 1063.52 106.719H1106.43C1106.74 106.719 1107.03 106.841 1107.25 107.059C1107.47 107.277 1107.59 107.572 1107.59 107.879V204.159C1107.59 204.466 1107.47 204.761 1107.25 204.979C1107.03 205.196 1106.74 205.319 1106.43 205.319H1063.52C1063.21 205.319 1062.92 205.196 1062.7 204.979C1062.48 204.761 1062.36 204.466 1062.36 204.159V107.879Z" fill="#4591C0" fill-opacity="0.1"/>
<path id="Vector_110" d="M1062.36 254.038C1062.36 242.963 1066.76 232.341 1074.59 224.509C1082.42 216.678 1093.04 212.278 1104.11 212.278H1119.19C1130.26 212.278 1140.88 216.678 1148.71 224.509C1156.54 232.341 1160.94 242.963 1160.94 254.038V256.358C1160.94 256.666 1160.82 256.961 1160.6 257.178C1160.38 257.396 1160.09 257.518 1159.78 257.518H1063.52C1063.21 257.518 1062.92 257.396 1062.7 257.178C1062.48 256.961 1062.36 256.666 1062.36 256.358V254.038Z" fill="#4591C0" fill-opacity="0.1"/>
<path id="Vector_111" d="M1062.36 266.799C1062.36 266.491 1062.48 266.196 1062.7 265.978C1062.92 265.761 1063.21 265.639 1063.52 265.639H1065.84C1076.91 265.639 1087.53 270.038 1095.36 277.87C1103.19 285.701 1107.59 296.323 1107.59 307.398V309.718C1107.59 310.026 1107.47 310.321 1107.25 310.539C1107.03 310.756 1106.74 310.878 1106.43 310.878H1063.52C1063.21 310.878 1062.92 310.756 1062.7 310.539C1062.48 310.321 1062.36 310.026 1062.36 309.718V266.799Z" fill="#26A0DA" fill-opacity="0.1"/>
<path id="Vector_112" d="M1062.36 446.597C1062.36 440.752 1064.68 435.146 1068.81 431.013C1072.95 426.88 1078.55 424.558 1084.4 424.558H1085.56C1091.4 424.558 1097.01 426.88 1101.14 431.013C1105.27 435.146 1107.59 440.752 1107.59 446.597V447.757C1107.59 453.603 1105.27 459.209 1101.14 463.342C1097.01 467.475 1091.4 469.797 1085.56 469.797H1084.4C1078.55 469.797 1072.95 467.475 1068.81 463.342C1064.68 459.209 1062.36 453.603 1062.36 447.757V446.597Z" fill="#26A0DA" fill-opacity="0.1"/>
<path id="Vector_113" d="M1115.71 1.15999C1115.71 0.852344 1115.83 0.557295 1116.05 0.339754C1116.27 0.122213 1116.56 0 1116.87 0L1213.13 0C1213.44 0 1213.73 0.122213 1213.95 0.339754C1214.17 0.557295 1214.29 0.852344 1214.29 1.15999V3.47998C1214.29 14.5554 1209.89 25.1771 1202.06 33.0086C1194.23 40.8401 1183.61 45.2397 1172.54 45.2397H1157.46C1146.39 45.2397 1135.77 40.8401 1127.94 33.0086C1120.11 25.1771 1115.71 14.5554 1115.71 3.47998V1.15999Z" fill="#8CDAFF" fill-opacity="0.1"/>
<path id="Vector_114" d="M1115.71 107.879C1115.71 107.572 1115.83 107.277 1116.05 107.059C1116.27 106.841 1116.56 106.719 1116.87 106.719H1172.54C1183.61 106.719 1194.23 111.119 1202.06 118.95C1209.89 126.782 1214.29 137.404 1214.29 148.479V150.799C1214.29 151.107 1214.17 151.402 1213.95 151.619C1213.73 151.837 1213.44 151.959 1213.13 151.959H1157.46C1146.39 151.959 1135.77 147.559 1127.94 139.728C1120.11 131.896 1115.71 121.275 1115.71 110.199V107.879Z" fill="#4591C0" fill-opacity="0.1"/>
<path id="Vector_115" d="M1115.71 200.679C1115.71 189.603 1120.11 178.982 1127.94 171.15C1135.77 163.319 1146.39 158.919 1157.46 158.919H1172.54C1183.61 158.919 1194.23 163.319 1202.06 171.15C1209.89 178.982 1214.29 189.603 1214.29 200.679V202.999C1214.29 203.306 1214.17 203.601 1213.95 203.819C1213.73 204.036 1213.44 204.159 1213.13 204.159H1116.87C1116.56 204.159 1116.27 204.036 1116.05 203.819C1115.83 203.601 1115.71 203.306 1115.71 202.999V200.679Z" fill="#26A0DA" fill-opacity="0.1"/>
<path id="Vector_116" d="M1115.71 307.398C1115.71 296.323 1120.11 285.701 1127.94 277.87C1135.77 270.038 1146.39 265.639 1157.46 265.639H1213.13C1213.44 265.639 1213.73 265.761 1213.95 265.978C1214.17 266.196 1214.29 266.491 1214.29 266.799V309.718C1214.29 310.026 1214.17 310.321 1213.95 310.539C1213.73 310.756 1213.44 310.878 1213.13 310.878H1116.87C1116.56 310.878 1116.27 310.756 1116.05 310.539C1115.83 310.321 1115.71 310.026 1115.71 309.718V307.398Z" fill="#26A0DA" fill-opacity="0.1"/>
<path id="Vector_117" d="M1115.71 360.758C1115.71 349.682 1120.11 339.061 1127.94 331.229C1135.77 323.398 1146.39 318.998 1157.46 318.998H1159.78C1160.09 318.998 1160.38 319.12 1160.6 319.338C1160.82 319.555 1160.94 319.85 1160.94 320.158V375.838C1160.94 386.913 1156.54 397.535 1148.71 405.366C1140.88 413.198 1130.26 417.597 1119.19 417.597H1116.87C1116.56 417.597 1116.27 417.475 1116.05 417.258C1115.83 417.04 1115.71 416.745 1115.71 416.437V360.758Z" fill="#8CDAFF" fill-opacity="0.1"/>
<path id="Vector_118" d="M1115.71 425.718C1115.71 425.41 1115.83 425.115 1116.05 424.897C1116.27 424.68 1116.56 424.558 1116.87 424.558H1119.19C1130.26 424.558 1140.88 428.957 1148.71 436.789C1156.54 444.62 1160.94 455.242 1160.94 466.317V468.637C1160.94 468.945 1160.82 469.24 1160.6 469.458C1160.38 469.675 1160.09 469.797 1159.78 469.797H1116.87C1116.56 469.797 1116.27 469.675 1116.05 469.458C1115.83 469.24 1115.71 468.945 1115.71 468.637V425.718Z" fill="#26A0DA" fill-opacity="0.1"/>
<path id="Vector_119" d="M1167.9 75.3997C1167.9 69.5544 1170.22 63.9485 1174.35 59.8152C1178.49 55.6819 1184.09 53.3599 1189.94 53.3599H1191.1C1196.94 53.3599 1202.55 55.6819 1206.68 59.8152C1210.81 63.9485 1213.13 69.5544 1213.13 75.3997V76.5597C1213.13 79.454 1212.56 82.32 1211.45 84.994C1210.35 87.668 1208.72 90.0977 1206.68 92.1443C1204.63 94.1909 1202.2 95.8143 1199.53 96.9219C1196.86 98.0295 1193.99 98.5996 1191.1 98.5996H1189.94C1184.09 98.5996 1178.49 96.2775 1174.35 92.1443C1170.22 88.011 1167.9 82.4051 1167.9 76.5597V75.3997Z" fill="#4591C0" fill-opacity="0.1"/>
<path id="Vector_120" d="M1167.9 254.038C1167.9 242.963 1172.3 232.341 1180.13 224.509C1187.96 216.678 1198.58 212.278 1209.65 212.278H1265.32C1265.63 212.278 1265.92 212.401 1266.14 212.618C1266.36 212.836 1266.48 213.131 1266.48 213.438V215.758C1266.48 226.834 1262.08 237.455 1254.25 245.287C1246.42 253.118 1235.8 257.518 1224.73 257.518H1169.06C1168.75 257.518 1168.46 257.396 1168.24 257.178C1168.02 256.961 1167.9 256.666 1167.9 256.358V254.038Z" fill="#26A0DA" fill-opacity="0.1"/>
<path id="Vector_121" d="M1167.9 320.158C1167.9 319.85 1168.02 319.555 1168.24 319.338C1168.46 319.12 1168.75 318.998 1169.06 318.998H1211.97C1212.28 318.998 1212.57 319.12 1212.79 319.338C1213.01 319.555 1213.13 319.85 1213.13 320.158V363.078C1213.13 363.385 1213.01 363.68 1212.79 363.898C1212.57 364.116 1212.28 364.238 1211.97 364.238H1209.65C1198.58 364.238 1187.96 359.838 1180.13 352.007C1172.3 344.175 1167.9 333.553 1167.9 322.478V320.158Z" fill="#26A0DA" fill-opacity="0.1"/>
<path id="Vector_122" d="M1167.9 414.117C1167.9 403.042 1172.3 392.42 1180.13 384.589C1187.96 376.757 1198.58 372.357 1209.65 372.357H1265.32C1265.63 372.357 1265.92 372.48 1266.14 372.697C1266.36 372.915 1266.48 373.21 1266.48 373.517V416.437C1266.48 416.745 1266.36 417.04 1266.14 417.257C1265.92 417.475 1265.63 417.597 1265.32 417.597H1169.06C1168.75 417.597 1168.46 417.475 1168.24 417.257C1168.02 417.04 1167.9 416.745 1167.9 416.437V414.117Z" fill="#8CDAFF" fill-opacity="0.1"/>
<path id="Vector_123" d="M1167.9 446.597C1167.9 440.752 1170.22 435.146 1174.35 431.013C1178.49 426.88 1184.09 424.558 1189.94 424.558H1191.1C1196.94 424.558 1202.55 426.88 1206.68 431.013C1210.81 435.146 1213.13 440.752 1213.13 446.597V447.757C1213.13 453.603 1210.81 459.209 1206.68 463.342C1202.55 467.475 1196.94 469.797 1191.1 469.797H1189.94C1184.09 469.797 1178.49 467.475 1174.35 463.342C1170.22 459.209 1167.9 453.603 1167.9 447.757V446.597Z" fill="#26A0DA" fill-opacity="0.1"/>
<path id="Vector_124" d="M1221.25 41.7598C1221.25 30.6844 1225.65 20.0626 1233.48 12.2311C1241.31 4.39968 1251.93 0 1263 0L1278.08 0C1289.15 0 1299.77 4.39968 1307.6 12.2311C1315.43 20.0626 1319.83 30.6844 1319.83 41.7598V44.0797C1319.83 44.3874 1319.71 44.6824 1319.49 44.9C1319.27 45.1175 1318.98 45.2397 1318.67 45.2397H1222.41C1222.1 45.2397 1221.81 45.1175 1221.59 44.9C1221.37 44.6824 1221.25 44.3874 1221.25 44.0797V41.7598Z" fill="#26A0DA" fill-opacity="0.1"/>
<path id="Vector_125" d="M1221.25 54.5199C1221.25 54.2122 1221.37 53.9172 1221.59 53.6996C1221.81 53.4821 1222.1 53.3599 1222.41 53.3599H1265.32C1265.63 53.3599 1265.92 53.4821 1266.14 53.6996C1266.36 53.9172 1266.48 54.2122 1266.48 54.5199V56.8398C1266.48 62.3238 1265.4 67.7541 1263.3 72.8206C1261.21 77.8871 1258.13 82.4907 1254.25 86.3684C1250.38 90.2462 1245.77 93.3222 1240.71 95.4208C1235.64 97.5194 1230.21 98.5996 1224.73 98.5996H1222.41C1222.1 98.5996 1221.81 98.4774 1221.59 98.2598C1221.37 98.0423 1221.25 97.7472 1221.25 97.4396V54.5199Z" fill="#26A0DA" fill-opacity="0.1"/>
<path id="Vector_126" d="M1221.25 148.479C1221.25 137.404 1225.65 126.782 1233.48 118.95C1241.31 111.119 1251.93 106.719 1263 106.719H1265.32C1265.63 106.719 1265.92 106.841 1266.14 107.059C1266.36 107.277 1266.48 107.572 1266.48 107.879V163.559C1266.48 174.634 1262.08 185.256 1254.25 193.087C1246.42 200.919 1235.8 205.319 1224.73 205.319H1222.41C1222.1 205.319 1221.81 205.196 1221.59 204.979C1221.37 204.761 1221.25 204.466 1221.25 204.159V148.479Z" fill="#4591C0" fill-opacity="0.1"/>
<path id="Vector_127" d="M1221.25 266.799C1221.25 266.491 1221.37 266.196 1221.59 265.978C1221.81 265.761 1222.1 265.639 1222.41 265.639H1265.32C1265.63 265.639 1265.92 265.761 1266.14 265.978C1266.36 266.196 1266.48 266.491 1266.48 266.799V363.078C1266.48 363.386 1266.36 363.681 1266.14 363.898C1265.92 364.116 1265.63 364.238 1265.32 364.238H1263C1251.93 364.238 1241.31 359.838 1233.48 352.007C1225.65 344.175 1221.25 333.554 1221.25 322.478V266.799Z" fill="#8CDAFF" fill-opacity="0.1"/>
<path id="Vector_128" d="M1221.25 425.718C1221.25 425.41 1221.37 425.115 1221.59 424.897C1221.81 424.68 1222.1 424.558 1222.41 424.558H1265.32C1265.63 424.558 1265.92 424.68 1266.14 424.897C1266.36 425.115 1266.48 425.41 1266.48 425.718V428.038C1266.48 439.113 1262.08 449.735 1254.25 457.566C1246.42 465.398 1235.8 469.797 1224.73 469.797H1222.41C1222.1 469.797 1221.81 469.675 1221.59 469.458C1221.37 469.24 1221.25 468.945 1221.25 468.637V425.718Z" fill="#4591C0" fill-opacity="0.1"/>
<path id="Vector_129" d="M1274.6 95.1196C1274.6 84.0442 1279 73.4225 1286.83 65.591C1294.66 57.7595 1305.28 53.3599 1316.35 53.3599H1331.43C1342.5 53.3599 1353.12 57.7595 1360.95 65.591C1368.78 73.4225 1373.18 84.0442 1373.18 95.1196V97.4396C1373.18 97.7472 1373.06 98.0423 1372.84 98.2598C1372.62 98.4774 1372.33 98.5996 1372.02 98.5996H1275.76C1275.45 98.5996 1275.16 98.4774 1274.94 98.2598C1274.72 98.0423 1274.6 97.7472 1274.6 97.4396V95.1196Z" fill="#4591C0" fill-opacity="0.1"/>
<path id="Vector_130" d="M1274.6 148.479C1274.6 137.404 1279 126.782 1286.83 118.95C1294.66 111.119 1305.28 106.719 1316.35 106.719H1318.67C1318.98 106.719 1319.27 106.841 1319.49 107.059C1319.71 107.277 1319.83 107.572 1319.83 107.879V204.159C1319.83 204.466 1319.71 204.761 1319.49 204.979C1319.27 205.196 1318.98 205.319 1318.67 205.319H1275.76C1275.45 205.319 1275.16 205.196 1274.94 204.979C1274.72 204.761 1274.6 204.466 1274.6 204.159V148.479Z" fill="#4591C0" fill-opacity="0.1"/>
<path id="Vector_131" d="M1274.6 213.438C1274.6 213.131 1274.72 212.836 1274.94 212.618C1275.16 212.401 1275.45 212.278 1275.76 212.278H1372.02C1372.33 212.278 1372.62 212.401 1372.84 212.618C1373.06 212.836 1373.18 213.131 1373.18 213.438V256.358C1373.18 256.666 1373.06 256.961 1372.84 257.178C1372.62 257.396 1372.33 257.518 1372.02 257.518H1275.76C1275.45 257.518 1275.16 257.396 1274.94 257.178C1274.72 256.961 1274.6 256.666 1274.6 256.358V213.438Z" fill="#4591C0" fill-opacity="0.1"/>
<path id="Vector_132" d="M1274.6 266.799C1274.6 266.491 1274.72 266.196 1274.94 265.978C1275.16 265.761 1275.45 265.639 1275.76 265.639H1318.67C1318.98 265.639 1319.27 265.761 1319.49 265.978C1319.71 266.196 1319.83 266.491 1319.83 266.799V322.478C1319.83 333.554 1315.43 344.175 1307.6 352.007C1299.77 359.838 1289.15 364.238 1278.08 364.238H1275.76C1275.45 364.238 1275.16 364.116 1274.94 363.898C1274.72 363.681 1274.6 363.386 1274.6 363.078V266.799Z" fill="#4591C0" fill-opacity="0.1"/>
<path id="Vector_133" d="M1274.6 414.117C1274.6 403.042 1279 392.42 1286.83 384.589C1294.66 376.757 1305.28 372.357 1316.35 372.357H1318.67C1318.98 372.357 1319.27 372.48 1319.49 372.697C1319.71 372.915 1319.83 373.21 1319.83 373.517V429.197C1319.83 440.272 1315.43 450.894 1307.6 458.726C1299.77 466.557 1289.15 470.957 1278.08 470.957H1275.76C1275.45 470.957 1275.16 470.835 1274.94 470.617C1274.72 470.4 1274.6 470.104 1274.6 469.797V414.117Z" fill="#4591C0" fill-opacity="0.1"/>
<path id="Vector_134" d="M1327.95 1.15999C1327.95 0.852344 1328.07 0.557295 1328.29 0.339754C1328.51 0.122213 1328.8 0 1329.11 0L1372.02 0C1372.33 0 1372.62 0.122213 1372.84 0.339754C1373.06 0.557295 1373.18 0.852344 1373.18 1.15999V44.0797C1373.18 44.3874 1373.06 44.6824 1372.84 44.9C1372.62 45.1175 1372.33 45.2397 1372.02 45.2397H1369.7C1358.63 45.2397 1348.01 40.8401 1340.18 33.0086C1332.35 25.1771 1327.95 14.5554 1327.95 3.47998V1.15999Z" fill="#8CDAFF" fill-opacity="0.1"/>
<path id="Vector_135" d="M1327.95 148.479C1327.95 137.404 1332.35 126.782 1340.18 118.95C1348.01 111.119 1358.63 106.719 1369.7 106.719H1372.02C1372.33 106.719 1372.62 106.841 1372.84 107.059C1373.06 107.277 1373.18 107.572 1373.18 107.879V150.799C1373.18 151.107 1373.06 151.402 1372.84 151.619C1372.62 151.837 1372.33 151.959 1372.02 151.959H1329.11C1328.8 151.959 1328.51 151.837 1328.29 151.619C1328.07 151.402 1327.95 151.107 1327.95 150.799V148.479Z" fill="#8CDAFF" fill-opacity="0.1"/>
<path id="Vector_136" d="M1327.95 200.679C1327.95 189.603 1332.35 178.982 1340.18 171.15C1348.01 163.319 1358.63 158.919 1369.7 158.919H1384.78C1395.85 158.919 1406.47 163.319 1414.3 171.15C1422.13 178.982 1426.53 189.603 1426.53 200.679V202.999C1426.53 203.306 1426.41 203.601 1426.19 203.819C1425.97 204.036 1425.68 204.159 1425.37 204.159H1329.11C1328.8 204.159 1328.51 204.036 1328.29 203.819C1328.07 203.601 1327.95 203.306 1327.95 202.999V200.679Z" fill="#8CDAFF" fill-opacity="0.1"/>
<path id="Vector_137" d="M1327.95 266.799C1327.95 266.491 1328.07 266.196 1328.29 265.978C1328.51 265.761 1328.8 265.639 1329.11 265.639H1331.43C1342.5 265.639 1353.12 270.038 1360.95 277.87C1368.78 285.701 1373.18 296.323 1373.18 307.398V309.718C1373.18 310.026 1373.06 310.321 1372.84 310.539C1372.62 310.756 1372.33 310.878 1372.02 310.878H1329.11C1328.8 310.878 1328.51 310.756 1328.29 310.539C1328.07 310.321 1327.95 310.026 1327.95 309.718V266.799Z" fill="#26A0DA" fill-opacity="0.1"/>
<path id="Vector_138" d="M1327.95 320.158C1327.95 319.85 1328.07 319.555 1328.29 319.338C1328.51 319.12 1328.8 318.998 1329.11 318.998H1425.37C1425.68 318.998 1425.97 319.12 1426.19 319.338C1426.41 319.555 1426.53 319.85 1426.53 320.158V322.478C1426.53 333.553 1422.13 344.175 1414.3 352.007C1406.47 359.838 1395.85 364.238 1384.78 364.238H1369.7C1358.63 364.238 1348.01 359.838 1340.18 352.007C1332.35 344.175 1327.95 333.553 1327.95 322.478V320.158Z" fill="#8CDAFF" fill-opacity="0.1"/>
<path id="Vector_139" d="M1327.95 373.517C1327.95 373.21 1328.07 372.915 1328.29 372.697C1328.51 372.48 1328.8 372.357 1329.11 372.357H1331.43C1342.5 372.357 1353.12 376.757 1360.95 384.589C1368.78 392.42 1373.18 403.042 1373.18 414.117V429.197C1373.18 440.272 1368.78 450.894 1360.95 458.726C1353.12 466.557 1342.5 470.957 1331.43 470.957H1329.11C1328.8 470.957 1328.51 470.835 1328.29 470.617C1328.07 470.4 1327.95 470.104 1327.95 469.797V373.517Z" fill="#4591C0" fill-opacity="0.1"/>
<path id="Vector_140" d="M1380.14 1.15999C1380.14 0.852344 1380.26 0.557295 1380.48 0.339754C1380.7 0.122213 1380.99 0 1381.3 0L1436.97 0C1448.04 0 1458.66 4.39968 1466.49 12.2311C1474.32 20.0626 1478.72 30.6844 1478.72 41.7598V44.0797C1478.72 44.3874 1478.6 44.6824 1478.38 44.9C1478.16 45.1175 1477.87 45.2397 1477.56 45.2397H1381.3C1380.99 45.2397 1380.7 45.1175 1380.48 44.9C1380.26 44.6824 1380.14 44.3874 1380.14 44.0797V1.15999Z" fill="#8CDAFF" fill-opacity="0.1"/>
<path id="Vector_141" d="M1380.14 54.5199C1380.14 54.2122 1380.26 53.9172 1380.48 53.6996C1380.7 53.4821 1380.99 53.3599 1381.3 53.3599H1477.56C1477.87 53.3599 1478.16 53.4821 1478.38 53.6996C1478.6 53.9172 1478.72 54.2122 1478.72 54.5199V56.8398C1478.72 62.3238 1477.64 67.7541 1475.54 72.8206C1473.45 77.8871 1470.37 82.4907 1466.49 86.3684C1462.62 90.2462 1458.01 93.3222 1452.95 95.4208C1447.88 97.5194 1442.45 98.5996 1436.97 98.5996H1381.3C1380.99 98.5996 1380.7 98.4774 1380.48 98.2598C1380.26 98.0423 1380.14 97.7472 1380.14 97.4396V54.5199Z" fill="#4591C0" fill-opacity="0.1"/>
<path id="Vector_142" d="M1380.14 107.879C1380.14 107.572 1380.26 107.277 1380.48 107.059C1380.7 106.841 1380.99 106.719 1381.3 106.719H1436.97C1448.04 106.719 1458.66 111.119 1466.49 118.95C1474.32 126.782 1478.72 137.404 1478.72 148.479V150.799C1478.72 151.107 1478.6 151.402 1478.38 151.619C1478.16 151.837 1477.87 151.959 1477.56 151.959H1381.3C1380.99 151.959 1380.7 151.837 1380.48 151.619C1380.26 151.402 1380.14 151.107 1380.14 150.799V107.879Z" fill="#26A0DA" fill-opacity="0.1"/>
<path id="Vector_143" d="M1380.14 213.438C1380.14 213.131 1380.26 212.836 1380.48 212.618C1380.7 212.401 1380.99 212.278 1381.3 212.278H1424.21C1424.52 212.278 1424.81 212.401 1425.03 212.618C1425.25 212.836 1425.37 213.131 1425.37 213.438V309.718C1425.37 310.025 1425.25 310.32 1425.03 310.538C1424.81 310.756 1424.52 310.878 1424.21 310.878H1421.89C1410.82 310.878 1400.2 306.478 1392.37 298.647C1384.54 290.815 1380.14 280.193 1380.14 269.118V213.438Z" fill="#4591C0" fill-opacity="0.1"/>
<path id="Vector_144" d="M1380.14 373.517C1380.14 373.21 1380.26 372.915 1380.48 372.697C1380.7 372.48 1380.99 372.357 1381.3 372.357H1383.62C1394.69 372.357 1405.31 376.757 1413.14 384.589C1420.97 392.42 1425.37 403.042 1425.37 414.117V429.197C1425.37 440.272 1420.97 450.894 1413.14 458.726C1405.31 466.557 1394.69 470.957 1383.62 470.957H1381.3C1380.99 470.957 1380.7 470.835 1380.48 470.617C1380.26 470.4 1380.14 470.104 1380.14 469.797V373.517Z" fill="#4591C0" fill-opacity="0.1"/>
<path id="Vector_145" d="M1433.49 200.679C1433.49 189.603 1437.89 178.982 1445.72 171.15C1453.55 163.319 1464.17 158.919 1475.24 158.919H1477.56C1477.87 158.919 1478.16 159.041 1478.38 159.259C1478.6 159.476 1478.72 159.771 1478.72 160.079V202.999C1478.72 203.306 1478.6 203.601 1478.38 203.819C1478.16 204.036 1477.87 204.159 1477.56 204.159H1434.65C1434.34 204.159 1434.05 204.036 1433.83 203.819C1433.61 203.601 1433.49 203.306 1433.49 202.999V200.679Z" fill="#4591C0" fill-opacity="0.1"/>
<path id="Vector_146" d="M1433.49 234.318C1433.49 228.473 1435.81 222.867 1439.94 218.734C1444.08 214.6 1449.68 212.278 1455.53 212.278H1456.69C1462.53 212.278 1468.14 214.6 1472.27 218.734C1476.4 222.867 1478.72 228.473 1478.72 234.318V235.478C1478.72 241.324 1476.4 246.929 1472.27 251.063C1468.14 255.196 1462.53 257.518 1456.69 257.518H1455.53C1449.68 257.518 1444.08 255.196 1439.94 251.063C1435.81 246.929 1433.49 241.324 1433.49 235.478V234.318Z" fill="#8CDAFF" fill-opacity="0.1"/>
<path id="Vector_147" d="M1433.49 266.799C1433.49 266.491 1433.61 266.196 1433.83 265.978C1434.05 265.761 1434.34 265.639 1434.65 265.639H1436.97C1448.04 265.639 1458.66 270.038 1466.49 277.87C1474.32 285.701 1478.72 296.323 1478.72 307.398V309.718C1478.72 310.026 1478.6 310.321 1478.38 310.539C1478.16 310.756 1477.87 310.878 1477.56 310.878H1434.65C1434.34 310.878 1434.05 310.756 1433.83 310.539C1433.61 310.321 1433.49 310.026 1433.49 309.718V266.799Z" fill="#8CDAFF" fill-opacity="0.1"/>
<path id="Vector_148" d="M1433.49 320.158C1433.49 319.85 1433.61 319.555 1433.83 319.338C1434.05 319.12 1434.34 318.998 1434.65 318.998H1477.56C1477.87 318.998 1478.16 319.12 1478.38 319.338C1478.6 319.555 1478.72 319.85 1478.72 320.158V363.078C1478.72 363.385 1478.6 363.68 1478.38 363.898C1478.16 364.116 1477.87 364.238 1477.56 364.238H1434.65C1434.34 364.238 1434.05 364.116 1433.83 363.898C1433.61 363.68 1433.49 363.385 1433.49 363.078V320.158Z" fill="#8CDAFF" fill-opacity="0.1"/>
<path id="Vector_149" d="M1433.49 394.397C1433.49 388.552 1435.81 382.946 1439.94 378.813C1444.08 374.679 1449.68 372.357 1455.53 372.357H1456.69C1462.53 372.357 1468.14 374.679 1472.27 378.813C1476.4 382.946 1478.72 388.552 1478.72 394.397V395.557C1478.72 401.403 1476.4 407.009 1472.27 411.142C1468.14 415.275 1462.53 417.597 1456.69 417.597H1455.53C1449.68 417.597 1444.08 415.275 1439.94 411.142C1435.81 407.009 1433.49 401.403 1433.49 395.557V394.397Z" fill="#4591C0" fill-opacity="0.1"/>
<path id="Vector_150" d="M1433.49 446.597C1433.49 440.752 1435.81 435.146 1439.94 431.013C1444.08 426.88 1449.68 424.558 1455.53 424.558H1456.69C1462.53 424.558 1468.14 426.88 1472.27 431.013C1476.4 435.146 1478.72 440.752 1478.72 446.597V447.757C1478.72 453.603 1476.4 459.209 1472.27 463.342C1468.14 467.475 1462.53 469.797 1456.69 469.797H1455.53C1449.68 469.797 1444.08 467.475 1439.94 463.342C1435.81 459.209 1433.49 453.603 1433.49 447.757V446.597Z" fill="#26A0DA" fill-opacity="0.1"/>
</g>
</svg>
