<svg width="53" height="53" viewBox="0 0 53 53" fill="none" xmlns="http://www.w3.org/2000/svg">
<g id="Frame 3">
<rect width="53" height="53" rx="26.5" fill="white"/>
<path id="Vector" d="M33.7703 13.5C31.2778 13.5 28.8857 14.6603 27.3243 16.4938C25.763 14.6603 23.3708 13.5 20.8784 13.5C16.4665 13.5 13 16.9665 13 21.3784C13 26.793 17.8703 31.2049 25.2473 37.9086L27.3243 39.7851L29.4014 37.8943C36.7784 31.2049 41.6486 26.793 41.6486 21.3784C41.6486 16.9665 38.1822 13.5 33.7703 13.5ZM27.4676 35.7743L27.3243 35.9176L27.1811 35.7743C20.3627 29.6005 15.8649 25.5181 15.8649 21.3784C15.8649 18.5135 18.0135 16.3649 20.8784 16.3649C23.0843 16.3649 25.233 17.783 25.9922 19.7454H28.6708C29.4157 17.783 31.5643 16.3649 33.7703 16.3649C36.6351 16.3649 38.7838 18.5135 38.7838 21.3784C38.7838 25.5181 34.2859 29.6005 27.4676 35.7743Z" fill="black"/>
</g>
</svg>
