<svg width="29" height="29" viewBox="0 0 29 29" fill="none" xmlns="http://www.w3.org/2000/svg">
<path id="Vector" d="M14.5001 0C6.49605 0 0 6.49605 0 14.5001C0 22.5042 6.49605 29.0002 14.5001 29.0002C22.5042 29.0002 29.0002 22.5042 29.0002 14.5001C29.0002 6.49605 22.5042 0 14.5001 0ZM7.75756 23.9252C9.65707 22.5622 11.9771 21.7502 14.5001 21.7502C17.0231 21.7502 19.3431 22.5622 21.2427 23.9252C19.3431 25.2882 17.0231 26.1002 14.5001 26.1002C11.9771 26.1002 9.65707 25.2882 7.75756 23.9252ZM23.4032 21.9242C20.863 19.9322 17.7282 18.8496 14.5001 18.8496C11.272 18.8496 8.1372 19.9322 5.59704 21.9242C3.85289 19.8437 2.89793 17.215 2.90002 14.5001C2.90002 8.09106 8.09106 2.90002 14.5001 2.90002C20.9092 2.90002 26.1002 8.09106 26.1002 14.5001C26.1002 17.3276 25.0852 19.9086 23.4032 21.9242Z" fill="black"/>
</svg>
