<svg width="53" height="53" viewBox="0 0 53 53" fill="none" xmlns="http://www.w3.org/2000/svg">
<g id="Frame 2">
<rect width="53" height="53" rx="26.5" fill="white"/>
<path id="Vector" d="M31.8419 26.7568C32.9162 26.7568 33.8616 26.1695 34.3486 25.2814L39.4768 15.9849C39.5975 15.7677 39.6594 15.5229 39.6564 15.2745C39.6535 15.0261 39.5857 14.7827 39.4598 14.5686C39.3339 14.3544 39.1542 14.1768 38.9386 14.0534C38.7231 13.93 38.479 13.865 38.2305 13.8649H17.0305L15.6841 11H11V13.8649H13.8649L19.0216 24.737L17.0878 28.2322C16.0422 30.1516 17.4173 32.4865 19.5946 32.4865H36.7838V29.6216H19.5946L21.1703 26.7568H31.8419ZM18.3914 16.7297H35.7954L31.8419 23.8919H21.7862L18.3914 16.7297ZM19.5946 33.9189C18.0189 33.9189 16.7441 35.2081 16.7441 36.7838C16.7441 38.3595 18.0189 39.6486 19.5946 39.6486C21.1703 39.6486 22.4595 38.3595 22.4595 36.7838C22.4595 35.2081 21.1703 33.9189 19.5946 33.9189ZM33.9189 33.9189C32.3432 33.9189 31.0684 35.2081 31.0684 36.7838C31.0684 38.3595 32.3432 39.6486 33.9189 39.6486C35.4946 39.6486 36.7838 38.3595 36.7838 36.7838C36.7838 35.2081 35.4946 33.9189 33.9189 33.9189Z" fill="black"/>
</g>
</svg>
